<svg width="58" height="52" viewBox="0 0 58 52" fill="none" xmlns="http://www.w3.org/2000/svg">
<g id="freepik--coin--inject-8">
<path id="Vector" d="M5.04995 39.58L2.31995 41.58L6.44995 47.15C6.9454 47.8172 7.52713 48.4157 8.17995 48.93C8.40995 49.11 8.65995 49.28 8.90995 49.44C10.1832 50.23 11.5894 50.7823 13.0599 51.07C13.6144 51.187 14.1754 51.2705 14.7399 51.32C15.3443 51.3881 15.9518 51.4248 16.5599 51.43C17.3811 51.44 18.2023 51.4066 19.0199 51.33C19.9099 51.25 20.8199 51.12 21.7399 50.95C22.4299 50.82 23.1199 50.67 23.8299 50.49C34.1199 47.91 45.2699 40.25 51.9999 31.19C52.4599 30.57 52.8899 29.95 53.2999 29.32C53.8999 28.42 54.4399 27.51 54.9399 26.59C55.34 25.84 55.7099 25.1 56.0299 24.37C56.3499 23.64 56.5499 23.12 56.7699 22.52C56.9899 21.92 57.1599 21.32 57.3099 20.73C57.7434 19.148 57.9323 17.5091 57.8699 15.87C57.8699 15.54 57.8699 15.22 57.7899 14.87C57.6415 13.5824 57.2441 12.336 56.6199 11.2C56.4325 10.8508 56.2186 10.5165 55.9799 10.2L52.0799 5L49.5799 6.83C49.2199 6.76 48.8499 6.7 48.4699 6.66C46.9147 6.48818 45.3452 6.48818 43.7899 6.66C42.7831 6.75075 41.7817 6.89428 40.7899 7.09C39.4383 7.34503 38.1026 7.67893 36.7899 8.09C27.2385 11.34 18.7635 17.1514 12.2899 24.89C11.367 26.001 10.5025 27.1592 9.69995 28.36C9.03995 29.36 8.43995 30.36 7.88995 31.36C7.09942 32.7949 6.43041 34.2935 5.88995 35.84C5.49162 37.0571 5.21034 38.3095 5.04995 39.58Z" fill="#FBA528"/>
<path id="Vector_2" opacity="0.15" d="M47.54 36.35L39.17 25L35.35 28.5L43.73 39.82C45.0633 38.7267 46.3333 37.57 47.54 36.35Z" fill="white"/>
<path id="Vector_3" opacity="0.05" d="M6.44995 47.15C6.9454 47.8172 7.52714 48.4158 8.17995 48.93C8.40995 49.11 8.65995 49.28 8.90995 49.44C10.1832 50.23 11.5894 50.7823 13.06 51.07L13.67 51.18L5.05996 39.54L2.32996 41.54L6.44995 47.15Z" fill="#FBA528"/>
<path id="Vector_4" opacity="0.15" d="M16.3999 31.73L13.8999 32.8L26.4699 49.73C27.3099 49.45 28.1499 49.14 28.9999 48.8L16.3999 31.73Z" fill="white"/>
<path id="Vector_5" opacity="0.15" d="M35.28 45.76L24.41 31.07L20.5 34.44L30.62 48.12C32.19 47.42 33.75 46.63 35.28 45.76Z" fill="white"/>
<path id="Vector_6" opacity="0.15" d="M52.0799 5L49.5799 6.83C49.2199 6.76 48.8499 6.7 48.4699 6.66C46.9146 6.48818 45.3452 6.48818 43.7899 6.66C42.7831 6.75075 41.7817 6.89428 40.7899 7.09C39.4382 7.34503 38.1026 7.67893 36.7899 8.09C35.5399 8.48 34.2799 8.95 33.0299 9.48L50.5399 33C51.0399 32.39 51.5399 31.78 51.9799 31.16C52.4199 30.54 52.8699 29.92 53.2799 29.29C53.8799 28.39 54.4199 27.48 54.9199 26.56C55.3199 25.81 55.6899 25.07 56.0099 24.34C56.3299 23.61 56.5299 23.09 56.7499 22.49C56.9699 21.89 57.1399 21.29 57.2899 20.7C57.7234 19.118 57.9122 17.4791 57.8499 15.84C57.8499 15.51 57.8499 15.19 57.7699 14.84C57.6214 13.5524 57.2241 12.3059 56.5999 11.17C56.4125 10.8208 56.1985 10.4865 55.9599 10.17L52.0799 5Z" fill="white"/>
<path id="Vector_7" opacity="0.15" d="M57.8599 15.87C57.8599 15.54 57.8599 15.22 57.7799 14.87C57.6314 13.5824 57.2341 12.336 56.6099 11.2C56.4225 10.8508 56.2085 10.5165 55.9699 10.2L52.0799 5L49.5799 6.83H49.5199L48.9099 7.76L57.5799 19.48C57.8222 18.2929 57.9162 17.0803 57.8599 15.87Z" fill="white"/>
<path id="Vector_8" d="M1.50995 29.88C0.960889 31.4515 0.624571 33.0893 0.509951 34.75C0.350427 36.7826 0.762625 38.8194 1.69995 40.63C2.29614 41.7318 3.11721 42.6959 4.10995 43.46C4.33662 43.64 4.57662 43.81 4.82995 43.97C6.10934 44.7623 7.52244 45.3146 8.99995 45.6C9.55469 45.7155 10.1156 45.799 10.68 45.85C11.2843 45.9181 11.8918 45.9548 12.5 45.96C13.3211 45.9702 14.1423 45.9368 14.96 45.86C15.86 45.78 16.76 45.65 17.68 45.48C18.37 45.35 19.07 45.2 19.77 45.02C30.06 42.44 41.21 34.78 47.92 25.72C48.38 25.1 48.81 24.48 49.23 23.85C49.82 22.95 50.37 22.04 50.86 21.12C51.27 20.37 51.63 19.63 51.95 18.9C52.27 18.17 52.47 17.65 52.69 17.05C52.91 16.45 53.08 15.85 53.24 15.26C53.6763 13.6785 53.8685 12.0396 53.81 10.4C53.81 10.07 53.81 9.75001 53.73 9.40001C53.5784 8.11172 53.1776 6.86522 52.55 5.73C51.5972 4.04428 50.1383 2.7009 48.38 1.89C47.0158 1.24021 45.552 0.824419 44.05 0.660003C42.4962 0.476975 40.9273 0.460214 39.37 0.610004C38.3631 0.700751 37.3617 0.844282 36.37 1.04C35.0351 1.29692 33.7162 1.63081 32.42 2.04C22.8419 5.30528 14.3504 11.1497 7.87995 18.93C6.95705 20.041 6.09255 21.1992 5.28995 22.4C4.62995 23.4 4.01995 24.4 3.47995 25.4C2.6942 26.8332 2.03503 28.3322 1.50995 29.88Z" fill="#F0F0F0"/>
<path id="Vector_9" opacity="0.15" d="M46.48 27.57C46.98 26.96 47.48 26.34 47.93 25.72C48.38 25.1 48.82 24.48 49.24 23.85C49.83 22.95 50.38 22.04 50.87 21.12C51.28 20.37 51.64 19.63 51.96 18.9C52.28 18.17 52.48 17.65 52.7 17.05C52.92 16.45 53.09 15.85 53.25 15.26C53.6863 13.6785 53.8785 12.0396 53.82 10.4C53.82 10.07 53.82 9.75001 53.74 9.40001C53.5884 8.11172 53.1876 6.86522 52.56 5.73C51.6072 4.04428 50.1484 2.7009 48.39 1.89C47.0258 1.24021 45.562 0.824419 44.06 0.660003C42.5062 0.476975 40.9373 0.460214 39.38 0.610004C38.5 0.690004 37.61 0.820003 36.72 0.980003L46.48 27.57Z" fill="white"/>
<path id="Vector_10" opacity="0.15" d="M53.5399 14C53.7718 12.8317 53.8657 11.6402 53.8199 10.45C53.8199 10.12 53.8199 9.80001 53.7399 9.45001C53.5884 8.16172 53.1876 6.91523 52.5599 5.78001C51.7872 4.40431 50.6664 3.25593 49.3099 2.45001L53.5399 14Z" fill="white"/>
<path id="Vector_11" opacity="0.15" d="M39.69 34.39C41.0233 33.27 42.29 32.1 43.49 30.88L32.86 2L32.43 2.13C31.0552 2.56785 29.7034 3.07517 28.38 3.65L39.69 34.39Z" fill="white"/>
<path id="Vector_12" opacity="0.15" d="M26.5799 42.65C28.1399 41.95 29.6999 41.16 31.2299 40.29L19.5299 8.45999C18.0399 9.45999 16.5899 10.55 15.1899 11.69L26.5799 42.65Z" fill="white"/>
<path id="Vector_13" opacity="0.15" d="M22.41 44.26C23.2633 43.98 24.1133 43.67 24.96 43.33L13.77 12.9C13.03 13.54 12.31 14.21 11.61 14.9L22.41 44.26Z" fill="white"/>
<path id="Vector_14" opacity="0.3" d="M2.70995 26.92C2.52329 27.3267 2.34328 27.7367 2.16995 28.15C2.10995 28.28 2.04995 28.42 1.99995 28.55C1.94995 28.68 1.88995 28.83 1.83995 28.97C1.71995 29.27 1.60995 29.58 1.50995 29.88C0.960889 31.4515 0.624571 33.0893 0.509951 34.75C0.350427 36.7826 0.762625 38.8194 1.69995 40.63C2.29614 41.7318 3.11721 42.696 4.10995 43.46C4.33662 43.64 4.57662 43.81 4.82995 43.97C6.10934 44.7623 7.52244 45.3146 8.99995 45.6L9.60995 45.71L2.70995 26.92Z" fill="#FBA528"/>
<path id="Vector_15" d="M9.55994 24.77C14.4199 15.84 25.6499 7.92002 35.1399 6.54002L36.3499 6.40002C46.0799 5.57002 49.8599 12.4 44.7899 21.74C39.7199 31.08 27.7399 39.27 17.9999 40.11L16.8399 40.17C7.99994 40.38 4.69994 33.7 9.55994 24.77Z" fill="#FBA528"/>
<path id="Vector_16" d="M10.34 24.7C10.5 24.42 10.66 24.13 10.84 23.84C15.71 15.67 26.02 8.56002 34.84 7.29002H35.08L35.99 7.19001C37.6151 7.01697 39.2582 7.13893 40.84 7.55002C42.3131 7.88613 43.6329 8.70193 44.5921 9.86934C45.5514 11.0368 46.0958 12.4897 46.14 14C46.1972 16.2421 45.7027 18.4639 44.7 20.47C44.49 20.92 44.26 21.38 44.01 21.84C43.76 22.3 43.53 22.69 43.27 23.11C42.7101 24.0117 42.1026 24.883 41.45 25.72C36.6092 31.7735 30.0691 36.2414 22.67 38.55C21.7184 38.8267 20.7496 39.0405 19.77 39.19C19.31 39.26 18.86 39.32 18.42 39.35C17.98 39.38 17.67 39.41 17.31 39.42H17C14.9519 39.5123 12.9226 38.9937 11.17 37.93C8.68996 36.28 7.67996 33.36 8.42996 29.69C8.81641 27.9414 9.46008 26.2598 10.34 24.7Z" fill="#FBA528"/>
<path id="Vector_17" opacity="0.13" d="M10.34 24.7C10.5 24.42 10.66 24.13 10.84 23.84C15.71 15.67 26.02 8.56002 34.84 7.29002H35.08L35.99 7.19001C37.6151 7.01697 39.2582 7.13893 40.84 7.55002C42.3131 7.88613 43.6329 8.70193 44.5921 9.86934C45.5514 11.0368 46.0958 12.4897 46.14 14C46.1972 16.2421 45.7027 18.4639 44.7 20.47C44.49 20.92 44.26 21.38 44.01 21.84C43.76 22.3 43.53 22.69 43.27 23.11C42.7101 24.0117 42.1026 24.883 41.45 25.72C36.6092 31.7735 30.0691 36.2414 22.67 38.55C21.7184 38.8267 20.7496 39.0405 19.77 39.19C19.31 39.26 18.86 39.32 18.42 39.35C17.98 39.38 17.67 39.41 17.31 39.42H17C14.9519 39.5123 12.9226 38.9937 11.17 37.93C8.68996 36.28 7.67996 33.36 8.42996 29.69C8.81641 27.9414 9.46008 26.2598 10.34 24.7Z" fill="#FBA528"/>
<path id="Vector_18" d="M12.3699 25.92C12.1899 26.21 12.0299 26.5 11.8699 26.78C10.9926 28.3434 10.3523 30.0285 9.96992 31.78C9.51684 33.6284 9.66753 35.5734 10.3999 37.33C10.6422 37.5551 10.9031 37.7592 11.1799 37.94C12.9308 38.9982 14.9562 39.5133 16.9999 39.42H17.2999C17.6599 39.42 18.0299 39.42 18.4099 39.35C18.7899 39.28 19.2999 39.26 19.7599 39.19C20.7396 39.0405 21.7083 38.8267 22.6599 38.55C30.0678 36.2323 36.6121 31.7499 41.4499 25.68C42.1025 24.843 42.7101 23.9717 43.2699 23.07C43.5299 22.65 43.7799 22.23 44.0099 21.8C44.2399 21.37 44.4899 20.88 44.6999 20.43C45.6963 18.4359 46.1906 16.2286 46.1399 14C46.0934 13.0706 45.8729 12.1581 45.4899 11.31C44.5775 10.5122 43.4924 9.93712 42.3199 9.63001C40.7373 9.22384 39.0952 9.10194 37.4699 9.27001C37.1699 9.27001 36.8599 9.33001 36.5599 9.38001H36.3199C27.5499 10.64 17.2399 17.75 12.3699 25.92Z" fill="#FBA528"/>
<path id="Vector_19" d="M4.85999 44C12.29 48.16 21.99 44.83 29.23 41.21C40 35.39 49.73 26.36 53.15 15.21C53.99 12.08 54.15 8.62999 52.57 5.73999C54.22 8.61999 54.18 12.11 53.36 15.28C50.78 24.47 43.52 32.21 35.36 37.94C26.87 43.47 14.49 49.28 4.85999 44Z" fill="#F5F5F5"/>
<g id="freepik--money-sign--inject-8">
<path id="Vector_20" opacity="0.13" d="M20.86 26.85L22.61 29.42L15.4 31.21L13.65 28.64L20.86 26.85Z" fill="#FBA528"/>
<path id="Vector_21" opacity="0.13" d="M19.82 25.21C20.62 26.68 23.27 27.05 25.51 27.34L26.98 27.52C27.2514 27.3095 27.479 27.0479 27.65 26.75C28.46 25.33 26.98 25.15 23.76 24.75C22.6709 24.6381 21.5915 24.4476 20.53 24.18C20.86 23.42 20.71 22.52 18.08 22.62L19.82 25.21Z" fill="#FBA528"/>
<path id="Vector_22" opacity="0.2" d="M36.62 9.54999L38.37 12.12L36.73 15.01L34.99 12.43L36.62 9.54999Z" fill="#FBA528"/>
<path id="Vector_23" opacity="0.13" d="M26.1099 18.53C26.7599 17.39 28.2399 16.78 29.9899 16.64C32.7799 16.42 33.0599 17.76 32.6999 18.79L33.0099 19.24C32.5846 19.1928 32.1553 19.1928 31.7299 19.24C30.5495 19.2802 29.4105 19.6855 28.4699 20.4C26.6199 20.15 25.3799 19.83 26.1099 18.53Z" fill="#FBA528"/>
<path id="Vector_24" opacity="0.13" d="M39.5799 15.78C39.7749 16.0701 40.0541 16.2934 40.3799 16.42C40.3799 16.59 40.3099 16.76 40.2599 16.94L41.9999 19.51C42.1712 19.0647 42.2378 18.586 42.1944 18.1108C42.1511 17.6357 41.999 17.1769 41.7499 16.77L39.9999 14.2C39.9999 14.2 39.0699 14.93 39.5799 15.78Z" fill="#FBA528"/>
<path id="Vector_25" d="M23.76 24.76C26.98 25.15 28.46 25.33 27.65 26.76C27.4791 27.0579 27.2514 27.3195 26.98 27.53C29.16 27.83 30.07 28.15 29.4 29.34C28.91 30.21 27.69 31 25.47 31.17C23.25 31.34 22.23 30.66 22.61 29.43L15.4 31.21V31.42C15.0525 31.3416 14.6953 31.3146 14.34 31.34L15.72 33.43L15.85 33.63C16.309 34.1865 16.9208 34.5966 17.61 34.81C18.5568 35.1183 19.5444 35.2834 20.54 35.3L17.19 35.56L18.94 38.14L21.17 38L24.24 37.76L25.87 34.88C30.69 34.04 34.63 31.88 36.55 28.46C37.43 26.91 37.49 25.83 37.04 25.06L36.91 24.87L35.43 22.75C35.1905 23.0304 35.0499 23.3818 35.03 23.75C34.3017 23.5245 33.5557 23.3606 32.8 23.26C29.8 22.83 26.8 22.96 27.87 21.12C28.0245 20.8368 28.2315 20.5857 28.48 20.38C26.63 20.16 25.39 19.84 26.12 18.54C26.77 17.4 28.25 16.79 30 16.65C32.79 16.43 33.07 17.77 32.72 18.8L33.02 19.25L34.46 21.37L42 19.51L40.25 16.94C40.3686 16.5436 40.4358 16.1335 40.45 15.72C39.27 15.2355 38.0055 14.9907 36.73 15L37.4 13.83L33.07 12.52L31.44 15.4C26.56 16.28 22.27 18.51 20.3 21.98C19.9506 22.5571 19.7131 23.1949 19.6 23.86C20.9425 24.3365 22.3405 24.639 23.76 24.76Z" fill="#FBA528"/>
<path id="Vector_26" opacity="0.1" d="M23.76 24.76C26.98 25.15 28.46 25.33 27.65 26.76C27.4791 27.0579 27.2514 27.3195 26.98 27.53C29.16 27.83 30.07 28.15 29.4 29.34C28.91 30.21 27.69 31 25.47 31.17C23.25 31.34 22.23 30.66 22.61 29.43L15.4 31.21V31.42C15.0525 31.3416 14.6953 31.3146 14.34 31.34L15.72 33.43L15.85 33.63C16.309 34.1865 16.9208 34.5966 17.61 34.81C18.5568 35.1183 19.5444 35.2834 20.54 35.3L17.19 35.56L18.94 38.14L21.17 38L24.24 37.76L25.87 34.88C30.69 34.04 34.63 31.88 36.55 28.46C37.43 26.91 37.49 25.83 37.04 25.06L36.91 24.87L35.43 22.75C35.1905 23.0304 35.0499 23.3818 35.03 23.75C34.3017 23.5245 33.5557 23.3606 32.8 23.26C29.8 22.83 26.8 22.96 27.87 21.12C28.0245 20.8368 28.2315 20.5857 28.48 20.38C26.63 20.16 25.39 19.84 26.12 18.54C26.77 17.4 28.25 16.79 30 16.65C32.79 16.43 33.07 17.77 32.72 18.8L33.02 19.25L34.46 21.37L42 19.51L40.25 16.94C40.3686 16.5436 40.4358 16.1335 40.45 15.72C39.27 15.2355 38.0055 14.9907 36.73 15L37.4 13.83L33.07 12.52L31.44 15.4C26.56 16.28 22.27 18.51 20.3 21.98C19.9506 22.5571 19.7131 23.1949 19.6 23.86C20.9425 24.3365 22.3405 24.639 23.76 24.76Z" fill="#FBA528"/>
<g id="Group" opacity="0.2">
<path id="Vector_27" d="M25.87 34.92C28.6096 34.3879 31.2061 33.2839 33.49 31.68C34.5804 30.8792 35.5157 29.8863 36.25 28.75C36.6204 28.2102 36.9133 27.6211 37.12 27C37.2289 26.6915 37.2744 26.3642 37.2538 26.0377C37.2332 25.7113 37.1469 25.3923 37 25.1C37.1688 25.383 37.2781 25.6975 37.3211 26.0242C37.3641 26.3509 37.3399 26.6829 37.25 27C37.0795 27.6571 36.8098 28.2843 36.45 28.86C35.7241 30.0546 34.7773 31.0999 33.66 31.94C32.5148 32.7755 31.2596 33.4485 29.93 33.94C28.6157 34.4113 27.2546 34.7399 25.87 34.92Z" fill="#FBA528"/>
</g>
<path id="Vector_28" d="M19.6 23.87C20.9429 24.3431 22.341 24.6422 23.76 24.76C26.98 25.15 28.46 25.33 27.65 26.76C27.4791 27.058 27.2514 27.3195 26.98 27.53C26.0225 28.2001 24.8883 28.5724 23.72 28.6C21.36 28.78 20.48 28.08 20.86 26.86L13.65 28.65C13.4607 29.3243 13.5264 30.0446 13.8344 30.6736C14.1424 31.3026 14.6713 31.7961 15.32 32.06C16.414 32.5262 17.5907 32.7677 18.78 32.77L17.15 35.65L20.5 35.39L22.5 35.24L24.13 32.35C28.95 31.51 32.89 29.35 34.82 25.94C35.1945 25.3279 35.4459 24.6485 35.56 23.94C35.83 21.77 33.56 21.07 31.06 20.69C30.16 20.56 29.26 20.48 28.48 20.38C26.63 20.16 25.39 19.84 26.12 18.54C26.77 17.4 28.25 16.79 30 16.65C32.79 16.43 33.07 17.77 32.71 18.8L40.27 16.95C40.3886 16.5536 40.4558 16.1436 40.47 15.73C40.47 14.21 39.47 13.33 37.96 12.87C36.9843 12.5903 35.9749 12.4456 34.96 12.44L36.59 9.56L31.3 9.95L29.66 12.85C24.78 13.73 20.49 15.96 18.53 19.43C17.14 21.92 18 23.18 19.6 23.87Z" fill="#FBA528"/>
<path id="Vector_29" d="M19.6 23.87C20.9429 24.3431 22.341 24.6422 23.76 24.76C26.98 25.15 28.46 25.33 27.65 26.76C27.4791 27.058 27.2514 27.3195 26.98 27.53C26.0225 28.2001 24.8883 28.5724 23.72 28.6C21.36 28.78 20.48 28.08 20.86 26.86L13.65 28.65C13.4607 29.3243 13.5264 30.0446 13.8344 30.6736C14.1424 31.3026 14.6713 31.7961 15.32 32.06C16.414 32.5262 17.5907 32.7677 18.78 32.77L17.15 35.65L20.5 35.39L22.5 35.24L24.13 32.35C28.95 31.51 32.89 29.35 34.82 25.94C35.1945 25.3279 35.4459 24.6485 35.56 23.94C35.83 21.77 33.56 21.07 31.06 20.69C30.16 20.56 29.26 20.48 28.48 20.38C26.63 20.16 25.39 19.84 26.12 18.54C26.77 17.4 28.25 16.79 30 16.65C32.79 16.43 33.07 17.77 32.71 18.8L40.27 16.95C40.3886 16.5536 40.4558 16.1436 40.47 15.73C40.47 14.21 39.47 13.33 37.96 12.87C36.9843 12.5903 35.9749 12.4456 34.96 12.44L36.59 9.56L31.3 9.95L29.66 12.85C24.78 13.73 20.49 15.96 18.53 19.43C17.14 21.92 18 23.18 19.6 23.87Z" fill="#F0F0F0"/>
<path id="Vector_30" opacity="0.15" d="M33.23 18.66L37.87 17.52L36.25 12.52C35.84 12.52 35.42 12.44 34.99 12.43L35.78 11L35.32 9.59998L31.32 9.89998L30.74 10.9L33.23 18.66Z" fill="white"/>
<path id="Vector_31" opacity="0.15" d="M19.6 23.87C20.943 24.3431 22.341 24.6422 23.76 24.76L24.76 24.89L21.86 15.89C20.4943 16.8034 19.3526 18.0135 18.52 19.43C18.3051 19.8177 18.1309 20.2265 18 20.65L18.92 23.51C19.139 23.6439 19.3661 23.7641 19.6 23.87Z" fill="white"/>
<path id="Vector_32" opacity="0.15" d="M25.8499 28.14C25.1648 28.3901 24.4477 28.5416 23.7199 28.59C21.3599 28.77 20.4799 28.07 20.8599 26.85L20.0699 27.05L22.6299 35L24.1199 32.35C25.0952 32.1848 26.0576 31.9509 26.9999 31.65L25.8499 28.14Z" fill="white"/>
<path id="Vector_33" opacity="0.15" d="M17.18 32.59C17.7097 32.6767 18.2439 32.7334 18.78 32.76L17.78 34.5L18.13 35.56L20.49 35.38H20.9L18.36 27.5L15.73 28.15L17.18 32.59Z" fill="white"/>
<path id="Vector_34" opacity="0.15" d="M34.1599 21.53L35.2699 25C35.4029 24.6791 35.4969 24.3433 35.5499 24C35.6424 23.4908 35.5542 22.9653 35.3004 22.5143C35.0466 22.0633 34.6432 21.7151 34.1599 21.53Z" fill="white"/>
<path id="Vector_35" d="M24.13 32.34L25.87 34.92L24.24 37.8L22.49 35.23L24.13 32.34Z" fill="#FBA528"/>
<path id="Vector_36" opacity="0.13" d="M24.13 32.34L25.87 34.92L24.24 37.8L22.49 35.23L24.13 32.34Z" fill="#FBA528"/>
<path id="Vector_37" d="M29.69 12.84L29.13 12.96L28.48 13.12C28.24 13.18 27.95 13.24 27.65 13.34C27.35 13.44 27.02 13.51 26.65 13.63L26.12 13.81L25.58 14.01L25.03 14.23L24.46 14.48C24.09 14.65 23.71 14.83 23.35 15.04C22.99 15.25 22.63 15.45 22.27 15.67C21.91 15.89 21.6 16.12 21.27 16.36C20.94 16.6 20.68 16.85 20.41 17.08L20.04 17.44L19.87 17.62L19.71 17.79C19.51 18.02 19.32 18.23 19.18 18.43C19.04 18.63 18.89 18.8 18.8 18.95L18.5 19.42L18.78 18.94C18.87 18.79 19 18.61 19.14 18.41C19.302 18.1813 19.4755 17.961 19.66 17.75L19.81 17.57L19.99 17.39L20.35 17.02C20.62 16.79 20.88 16.52 21.2 16.29C21.52 16.06 21.84 15.81 22.2 15.58C22.56 15.35 22.91 15.13 23.28 14.94C23.65 14.75 24.03 14.56 24.41 14.38C24.6 14.29 24.79 14.22 24.98 14.14C25.1624 14.0563 25.3494 13.9829 25.54 13.92L26.08 13.72L26.62 13.55C26.96 13.44 27.29 13.36 27.62 13.27C27.95 13.18 28.21 13.13 28.46 13.08C28.71 13.03 28.92 12.98 29.1 12.95L29.69 12.84Z" fill="white"/>
<path id="Vector_38" d="M22.49 35.23L17.15 35.64L18.78 32.76L17.69 35.3L22.49 35.23Z" fill="#FAFAFA"/>
<path id="Vector_39" d="M34.99 12.43L36.19 9.82999L31.33 9.93999L36.62 9.54999L34.99 12.43Z" fill="#FAFAFA"/>
</g>
</g>
</svg>
