<svg width="42" height="37" viewBox="0 0 42 37" fill="none" xmlns="http://www.w3.org/2000/svg">
<g id="freepik--coin--inject-8">
<path id="Vector" d="M3.65997 27.9L1.71997 29.32L4.64996 33.32C5.00224 33.7957 5.41583 34.2227 5.87997 34.59L6.38998 34.95C7.29429 35.5114 8.29432 35.9012 9.33997 36.1C9.71997 36.18 10.12 36.24 10.53 36.29C10.94 36.34 11.37 36.36 11.82 36.36C12.27 36.36 12.96 36.36 13.57 36.29C14.18 36.22 14.85 36.14 15.5 36.02C15.99 35.93 16.5 35.82 16.98 35.7C24.28 33.86 32.19 28.43 36.98 22C37.31 21.56 37.62 21.12 37.91 20.67C38.33 20.04 38.72 19.39 39.07 18.74C39.42 18.09 39.61 17.68 39.84 17.16C40.07 16.64 40.21 16.28 40.37 15.85C40.53 15.42 40.65 14.99 40.75 14.58C41.0557 13.4566 41.1905 12.2936 41.15 11.13C41.15 10.9 41.15 10.67 41.09 10.45C40.9843 9.53778 40.7024 8.65476 40.26 7.85002C40.12 7.61002 39.97 7.38002 39.81 7.15002L37 3.37003L35.23 4.67002L34.45 4.54002C33.3433 4.41887 32.2267 4.41887 31.12 4.54002C30.4051 4.6021 29.6941 4.70224 28.99 4.84002C28.0438 5.02715 27.109 5.26753 26.19 5.56002C19.391 7.8835 13.3638 12.0355 8.76996 17.56C8.10996 18.36 7.48996 19.19 6.92996 20.02C6.36996 20.85 6.03996 21.43 5.64996 22.14C5.09885 23.1595 4.63392 24.2232 4.25998 25.32C3.97601 26.1583 3.77504 27.0225 3.65997 27.9Z" fill="#FBA528"/>
<path id="Vector_2" opacity="0.15" d="M33.7999 25.61L27.8699 17.61L25.1599 20.09L31.0999 28.09C31.9999 27.31 32.9999 26.48 33.7999 25.61Z" fill="white"/>
<path id="Vector_3" opacity="0.05" d="M4.64996 33.27C5.00224 33.7457 5.41583 34.1727 5.87997 34.54L6.38998 34.9C7.29429 35.4614 8.29432 35.8512 9.33997 36.05L9.76996 36.13L3.65997 27.88L1.71997 29.3L4.64996 33.27Z" fill="#FBA528"/>
<path id="Vector_4" opacity="0.15" d="M11.7099 22.33L9.93994 23.09L18.8499 35.09C19.4499 34.9 20.0499 34.68 20.6499 34.44L11.7099 22.33Z" fill="white"/>
<path id="Vector_5" opacity="0.15" d="M25.1 32.28L17.39 21.86L14.62 24.26L21.8 33.96C22.9305 33.4621 24.0323 32.9012 25.1 32.28Z" fill="white"/>
<path id="Vector_6" opacity="0.15" d="M37 3.37003L35.23 4.67002L34.45 4.54002C33.3433 4.41887 32.2267 4.41887 31.12 4.54002C30.4052 4.6021 29.6942 4.70224 28.99 4.84002C28.0439 5.02715 27.1091 5.26753 26.19 5.56002C25.31 5.84002 24.41 6.17002 23.52 6.56002L35.91 23.3C36.26 22.87 36.61 22.43 36.91 21.99C37.21 21.55 37.55 21.11 37.84 20.66C38.26 20.03 38.65 19.38 39 18.73C39.35 18.08 39.54 17.67 39.77 17.15C40 16.63 40.14 16.27 40.3 15.84C40.46 15.41 40.58 14.98 40.68 14.57C40.9857 13.4466 41.1206 12.2836 41.08 11.12C41.08 10.89 41.08 10.66 41.02 10.44C40.9143 9.52778 40.6325 8.64475 40.19 7.84002C40.05 7.60002 39.9 7.37002 39.74 7.14002L37 3.37003Z" fill="white"/>
<path id="Vector_7" opacity="0.15" d="M41.1299 11.08C41.1299 10.85 41.1299 10.62 41.0699 10.4C40.9643 9.48778 40.6824 8.60476 40.2399 7.80003C40.0999 7.56003 39.9499 7.33002 39.7899 7.10002L36.9999 3.37003L35.2299 4.67002L34.7999 5.33002L40.95 13.64C41.111 12.7968 41.1714 11.9375 41.1299 11.08Z" fill="white"/>
<path id="Vector_8" d="M1.14997 21C0.762014 22.1127 0.529812 23.2737 0.459966 24.45C0.340943 25.8946 0.632103 27.3435 1.29996 28.63C1.71978 29.4117 2.30302 30.0938 3.00998 30.63C3.16998 30.76 3.33996 30.88 3.51996 31C4.43863 31.5688 5.45647 31.959 6.51996 32.15C6.9129 32.2325 7.31021 32.2926 7.70997 32.33C8.11997 32.38 8.54997 32.4 8.99997 32.41C9.44997 32.42 10.14 32.41 10.75 32.34C11.36 32.27 12.02 32.19 12.68 32.07C13.16 31.98 13.68 31.87 14.16 31.75C21.46 29.91 29.37 24.48 34.16 18.05C34.49 17.61 34.79 17.17 35.09 16.72C35.51 16.08 35.9 15.44 36.25 14.79C36.6 14.14 36.79 13.73 37.02 13.21C37.25 12.69 37.39 12.33 37.54 11.89C37.69 11.45 37.82 11.04 37.93 10.63C38.243 9.5079 38.3813 8.34425 38.34 7.18002C38.34 6.95002 38.34 6.72002 38.28 6.50002C38.1743 5.58778 37.8924 4.70475 37.45 3.90002C36.7635 2.69594 35.7133 1.74024 34.45 1.17002C33.4793 0.709536 32.4381 0.415446 31.37 0.30002C30.2666 0.178476 29.1533 0.178476 28.05 0.30002C27.335 0.365538 26.624 0.469015 25.92 0.610018C24.9751 0.798351 24.0405 1.03533 23.12 1.32002C16.321 3.6435 10.2938 7.79545 5.69999 13.32C5.03999 14.13 4.41996 14.95 3.85996 15.78C3.29996 16.61 2.96996 17.19 2.57996 17.9C2.01781 18.8917 1.53948 19.9287 1.14997 21Z" fill="#F0F0F0"/>
<path id="Vector_9" opacity="0.15" d="M33.0499 19.38C33.4099 18.95 33.7499 18.51 34.0499 18.07C34.3499 17.63 34.6799 17.19 34.9799 16.74C35.4 16.1 35.79 15.46 36.14 14.81C36.49 14.16 36.6799 13.75 36.9099 13.23C37.1399 12.71 37.2799 12.35 37.4299 11.91C37.5799 11.47 37.7099 11.06 37.8199 10.65C38.133 9.5279 38.2713 8.36424 38.2299 7.20001C38.2299 6.97001 38.23 6.74001 38.17 6.52001C38.0643 5.60776 37.7824 4.72474 37.3399 3.92001C36.6534 2.71593 35.6032 1.76024 34.3399 1.19001C33.3692 0.729533 32.3281 0.435435 31.2599 0.320009C30.1566 0.198465 29.0433 0.198465 27.9399 0.320009C27.3199 0.380009 26.6899 0.470006 26.0499 0.590006L33.0499 19.38Z" fill="white"/>
<path id="Vector_10" opacity="0.15" d="M38.0599 9.72002C38.2269 8.891 38.294 8.04498 38.2599 7.20001C38.2599 6.97001 38.26 6.74001 38.2 6.52001C38.0943 5.60777 37.8124 4.72475 37.3699 3.92001C36.8184 2.94311 36.0224 2.12639 35.0599 1.55002L38.0599 9.72002Z" fill="white"/>
<path id="Vector_11" opacity="0.15" d="M28.24 24.22C29.18 23.42 30.08 22.59 30.93 21.73L23.39 1.21002L23.08 1.30003C22.13 1.60003 21.17 1.97002 20.21 2.38002L28.24 24.22Z" fill="white"/>
<path id="Vector_12" opacity="0.15" d="M18.93 30.08C20.0586 29.5781 21.1601 29.0173 22.23 28.4L13.93 5.82001C12.87 6.54001 11.84 7.30001 10.85 8.12001L18.93 30.08Z" fill="white"/>
<path id="Vector_13" opacity="0.15" d="M15.9999 31.22C16.5999 31.02 17.2099 30.8 17.8099 30.56L9.84995 9C9.31995 9.46 8.84994 9.93 8.30994 10.41L15.9999 31.22Z" fill="white"/>
<path id="Vector_14" opacity="0.3" d="M1.99997 18.92C1.85997 19.2067 1.72996 19.4967 1.60996 19.79L1.48996 20.08C1.48996 20.18 1.41998 20.28 1.37998 20.37C1.33998 20.46 1.21997 20.81 1.14997 21.02C0.762014 22.1327 0.529812 23.2937 0.459966 24.47C0.340943 25.9146 0.632103 27.3635 1.29996 28.65C1.71978 29.4317 2.30302 30.1138 3.00998 30.65C3.16998 30.78 3.33996 30.9 3.51996 31.02C4.43863 31.5888 5.45647 31.979 6.51996 32.17L6.94999 32.25L1.99997 18.92Z" fill="#FBA528"/>
<path id="Vector_15" d="M6.85995 17.4C10.2999 11.06 18.27 5.4 25.01 4.46L25.8599 4.36001C32.7699 3.77001 35.4499 8.64 31.8599 15.24C28.2699 21.84 19.7599 27.68 12.8599 28.24H12.04C5.73997 28.47 3.40995 23.73 6.85995 17.4Z" fill="#FBA528"/>
<path id="Vector_16" d="M7.40998 17.35C7.51998 17.14 7.63998 16.94 7.75998 16.74C11.22 10.94 18.53 5.89002 24.76 4.99002H24.92L25.57 4.91002C26.723 4.79344 27.8876 4.88146 29.01 5.17002C30.0622 5.39914 31.0076 5.97332 31.6961 6.80133C32.3846 7.62934 32.7767 8.66368 32.81 9.74002C32.8565 11.3287 32.5132 12.9047 31.81 14.33C31.66 14.65 31.5 14.98 31.32 15.33C31.14 15.68 30.98 15.93 30.79 16.23C30.3977 16.8722 29.9669 17.4899 29.5 18.08C26.0687 22.3824 21.4304 25.5616 16.18 27.21C15.5033 27.405 14.8153 27.5586 14.12 27.67C13.8 27.72 13.48 27.76 13.12 27.78C12.76 27.8 12.59 27.78 12.33 27.78H12.12C10.6682 27.848 9.2295 27.4788 7.98996 26.72C6.22996 25.55 5.50998 23.48 6.03998 20.88C6.31826 19.6417 6.78002 18.4519 7.40998 17.35Z" fill="#FBA528"/>
<path id="Vector_17" opacity="0.13" d="M7.40998 17.35C7.51998 17.14 7.63998 16.94 7.75998 16.74C11.22 10.94 18.53 5.89002 24.76 4.99002H24.92L25.57 4.91002C26.723 4.79344 27.8876 4.88146 29.01 5.17002C30.0622 5.39914 31.0076 5.97332 31.6961 6.80133C32.3846 7.62934 32.7767 8.66368 32.81 9.74002C32.8565 11.3287 32.5132 12.9047 31.81 14.33C31.66 14.65 31.5 14.98 31.32 15.33C31.14 15.68 30.98 15.93 30.79 16.23C30.3977 16.8722 29.9669 17.4899 29.5 18.08C26.0687 22.3824 21.4304 25.5616 16.18 27.21C15.5033 27.405 14.8153 27.5586 14.12 27.67C13.8 27.72 13.48 27.76 13.12 27.78C12.76 27.8 12.59 27.78 12.33 27.78H12.12C10.6682 27.848 9.2295 27.4788 7.98996 26.72C6.22996 25.55 5.50998 23.48 6.03998 20.88C6.31826 19.6417 6.78002 18.4519 7.40998 17.35Z" fill="#FBA528"/>
<path id="Vector_18" d="M8.84991 18.21C8.71991 18.42 8.6099 18.62 8.4999 18.82C7.87945 19.9278 7.42461 21.1204 7.14989 22.36C6.82621 23.6717 6.93137 25.0525 7.44991 26.3C7.62354 26.4596 7.81093 26.6035 8.00991 26.73C9.24945 27.4888 10.6882 27.858 12.1399 27.79H12.3499C12.6099 27.79 12.8699 27.79 13.1399 27.79C13.4099 27.79 13.7799 27.73 14.1399 27.68C14.8353 27.5686 15.5232 27.415 16.1999 27.22C21.4471 25.54 26.0719 22.3291 29.4799 18C29.9468 17.4099 30.3776 16.7921 30.7699 16.15C30.9599 15.85 31.1299 15.55 31.2999 15.25C31.4699 14.95 31.6399 14.59 31.7899 14.25C32.4931 12.8247 32.8365 11.2487 32.7899 9.66002C32.7569 9.00347 32.6008 8.35897 32.3299 7.76002C31.6826 7.19171 30.9125 6.78098 30.0799 6.56001C28.9567 6.27563 27.7924 6.191 26.6399 6.31001L25.9899 6.38001H25.8199C19.6199 7.37001 12.2999 12.41 8.84991 18.21Z" fill="#FBA528"/>
<path id="Vector_19" d="M3.52002 31C8.80002 33.95 15.68 31.58 20.81 29C28.45 24.88 35.35 18.47 37.81 10.59C38.5483 8.38562 38.405 5.98107 37.41 3.88C38.4619 5.97667 38.6626 8.39883 37.97 10.64C36.14 17.16 30.97 22.64 25.18 26.71C19.14 30.67 10.35 34.79 3.52002 31Z" fill="#F5F5F5"/>
<g id="freepik--money-sign--inject-8">
<path id="Vector_20" opacity="0.13" d="M14.88 18.87L16.11 20.7L11 21.97L9.76001 20.14L14.88 18.87Z" fill="#FBA528"/>
<path id="Vector_21" opacity="0.13" d="M14.14 17.7C14.71 18.7 16.58 19.01 18.14 19.22C18.53 19.22 18.88 19.3 19.19 19.35C19.3788 19.1968 19.5381 19.0104 19.66 18.8C20.23 17.8 19.19 17.66 16.9 17.39C16.1281 17.3063 15.363 17.1693 14.61 16.98C14.84 16.44 14.73 15.81 12.87 15.88L14.14 17.7Z" fill="#FBA528"/>
<path id="Vector_22" opacity="0.2" d="M26.06 6.59003L27.3 8.42003L26.14 10.47L24.9 8.64003L26.06 6.59003Z" fill="#FBA528"/>
<path id="Vector_23" opacity="0.13" d="M18.6 13C18.918 12.5725 19.3334 12.2271 19.8117 11.9923C20.29 11.7575 20.8173 11.6402 21.35 11.65C23.35 11.5 23.53 12.45 23.28 13.18L23.5 13.5C23.1978 13.4636 22.8923 13.4636 22.59 13.5C21.7505 13.5268 20.9399 13.8133 20.27 14.32C19 14.12 18.08 13.89 18.6 13Z" fill="#FBA528"/>
<path id="Vector_24" opacity="0.13" d="M28.15 11C28.2933 11.2075 28.4953 11.3677 28.73 11.46C28.73 11.58 28.68 11.7 28.64 11.83L29.88 13.65C30.001 13.3345 30.0477 12.9954 30.0165 12.659C29.9853 12.3226 29.877 11.9978 29.7 11.71L28.46 9.89001C28.46 9.89001 27.79 10.41 28.15 11Z" fill="#FBA528"/>
<path id="Vector_25" d="M16.93 17.39C19.22 17.66 20.26 17.79 19.69 18.8C19.5681 19.0104 19.4088 19.1968 19.22 19.35C20.76 19.56 21.41 19.79 20.93 20.63C20.605 21.0565 20.1813 21.3976 19.6953 21.6241C19.2093 21.8505 18.6756 21.9555 18.14 21.93C16.46 22.06 15.84 21.57 16.14 20.7L11 22C11 22 11 22.09 11 22.14C10.7515 22.1007 10.4985 22.1007 10.25 22.14L11.25 23.62L11.35 23.76C11.6751 24.1568 12.1099 24.4489 12.6 24.6C13.2725 24.8176 13.9733 24.9355 14.68 24.95L12.3 25.14L13.54 26.96L15.15 26.84L17.33 26.67L18.49 24.67C21.91 24.08 24.7 22.54 26.07 20.12C26.69 19.02 26.74 18.26 26.42 17.71C26.3959 17.6629 26.3656 17.6192 26.33 17.58L25.2 16C25.0353 16.1941 24.9371 16.436 24.92 16.69C24.4037 16.5331 23.8752 16.4193 23.34 16.35C21.2 16.04 19.1 16.14 19.84 14.83C19.9546 14.6319 20.0997 14.453 20.27 14.3C18.96 14.15 18.08 13.92 18.6 13C18.918 12.5725 19.3334 12.2271 19.8116 11.9923C20.2899 11.7575 20.8173 11.6401 21.35 11.65C23.35 11.5 23.53 12.45 23.28 13.18L23.5 13.5L24.5 15.01L29.86 13.69L28.62 11.87C28.7049 11.5909 28.752 11.3017 28.76 11.01C27.9234 10.6636 27.0254 10.4902 26.12 10.5L26.59 9.67002L23.52 8.74002L22.36 10.79C18.9 11.41 15.85 12.99 14.46 15.46C14.2119 15.8647 14.0423 16.3125 13.96 16.78C14.9193 17.1115 15.9177 17.3166 16.93 17.39Z" fill="#FBA528"/>
<path id="Vector_26" opacity="0.1" d="M16.93 17.39C19.22 17.66 20.26 17.79 19.69 18.8C19.5681 19.0104 19.4088 19.1968 19.22 19.35C20.76 19.56 21.41 19.79 20.93 20.63C20.605 21.0565 20.1813 21.3976 19.6953 21.6241C19.2093 21.8505 18.6756 21.9555 18.14 21.93C16.46 22.06 15.84 21.57 16.14 20.7L11 22C11 22 11 22.09 11 22.14C10.7515 22.1007 10.4985 22.1007 10.25 22.14L11.25 23.62L11.35 23.76C11.6751 24.1568 12.1099 24.4489 12.6 24.6C13.2725 24.8176 13.9733 24.9355 14.68 24.95L12.3 25.14L13.54 26.96L15.15 26.84L17.33 26.67L18.49 24.67C21.91 24.08 24.7 22.54 26.07 20.12C26.69 19.02 26.74 18.26 26.42 17.71C26.3959 17.6629 26.3656 17.6192 26.33 17.58L25.2 16C25.0353 16.1941 24.9371 16.436 24.92 16.69C24.4037 16.5331 23.8752 16.4193 23.34 16.35C21.2 16.04 19.1 16.14 19.84 14.83C19.9546 14.6319 20.0997 14.453 20.27 14.3C18.96 14.15 18.08 13.92 18.6 13C18.918 12.5725 19.3334 12.2271 19.8116 11.9923C20.2899 11.7575 20.8173 11.6401 21.35 11.65C23.35 11.5 23.53 12.45 23.28 13.18L23.5 13.5L24.5 15.01L29.86 13.69L28.62 11.87C28.7049 11.5909 28.752 11.3017 28.76 11.01C27.9234 10.6636 27.0254 10.4902 26.12 10.5L26.59 9.67002L23.52 8.74002L22.36 10.79C18.9 11.41 15.85 12.99 14.46 15.46C14.2119 15.8647 14.0423 16.3125 13.96 16.78C14.9193 17.1115 15.9177 17.3166 16.93 17.39Z" fill="#FBA528"/>
<g id="Group" opacity="0.2">
<path id="Vector_27" d="M18.4299 24.59C20.3714 24.2166 22.2118 23.4361 23.8299 22.3C24.6211 21.7382 25.2995 21.0326 25.8299 20.22C26.0997 19.8342 26.3088 19.4092 26.45 18.96C26.6091 18.5274 26.5911 18.0495 26.3999 17.63C26.5191 17.8314 26.5958 18.0552 26.625 18.2874C26.6542 18.5196 26.6355 18.7554 26.5699 18.98C26.4473 19.4462 26.2551 19.8912 25.9999 20.3C25.4825 21.1507 24.803 21.8914 23.9999 22.48C23.1907 23.072 22.3019 23.5466 21.3599 23.89C20.4126 24.2326 19.4298 24.4674 18.4299 24.59Z" fill="#FBA528"/>
</g>
<path id="Vector_28" d="M14 16.75C14.9515 17.0901 15.9431 17.3052 16.95 17.39C19.24 17.66 20.28 17.79 19.71 18.8C19.5881 19.0104 19.4288 19.1968 19.24 19.35C18.556 19.8202 17.7498 20.0808 16.92 20.1C15.25 20.23 14.63 19.74 14.92 18.87L9.79999 20.14C9.66014 20.6179 9.70359 21.1308 9.92181 21.5783C10.14 22.0259 10.5174 22.3759 10.98 22.56C11.7582 22.89 12.5948 23.0601 13.44 23.06L12.28 25.11L14.66 24.92L16.07 24.81L17.23 22.81C20.65 22.21 23.44 20.67 24.81 18.26C25.0755 17.8248 25.2554 17.3428 25.34 16.84C25.53 15.3 23.95 14.84 22.14 14.53C21.51 14.44 20.87 14.38 20.31 14.31C19 14.16 18.12 13.93 18.64 13.01C18.958 12.5825 19.3734 12.2371 19.8517 12.0023C20.3299 11.7675 20.8573 11.6502 21.39 11.66C23.39 11.51 23.57 12.46 23.32 13.19L28.68 11.88C28.7649 11.6009 28.812 11.3117 28.82 11.02C28.82 9.94003 28.11 9.31003 27.04 9.02003C26.3568 8.82571 25.6503 8.7248 24.94 8.72003L26.1 6.72003L22.35 7.00003L21.18 9.06003C17.72 9.68003 14.67 11.26 13.28 13.73C12.23 15.37 12.83 16.26 14 16.75Z" fill="#FBA528"/>
<path id="Vector_29" d="M14 16.75C14.9515 17.0901 15.9431 17.3052 16.95 17.39C19.24 17.66 20.28 17.79 19.71 18.8C19.5881 19.0104 19.4288 19.1968 19.24 19.35C18.556 19.8202 17.7498 20.0808 16.92 20.1C15.25 20.23 14.63 19.74 14.92 18.87L9.79999 20.14C9.66014 20.6179 9.70359 21.1308 9.92181 21.5783C10.14 22.0259 10.5174 22.3759 10.98 22.56C11.7582 22.89 12.5948 23.0601 13.44 23.06L12.28 25.11L14.66 24.92L16.07 24.81L17.23 22.81C20.65 22.21 23.44 20.67 24.81 18.26C25.0755 17.8248 25.2554 17.3428 25.34 16.84C25.53 15.3 23.95 14.84 22.14 14.53C21.51 14.44 20.87 14.38 20.31 14.31C19 14.16 18.12 13.93 18.64 13.01C18.958 12.5825 19.3734 12.2371 19.8517 12.0023C20.3299 11.7675 20.8573 11.6502 21.39 11.66C23.39 11.51 23.57 12.46 23.32 13.19L28.68 11.88C28.7649 11.6009 28.812 11.3117 28.82 11.02C28.82 9.94003 28.11 9.31003 27.04 9.02003C26.3568 8.82571 25.6503 8.7248 24.94 8.72003L26.1 6.72003L22.35 7.00003L21.18 9.06003C17.72 9.68003 14.67 11.26 13.28 13.73C12.23 15.37 12.83 16.26 14 16.75Z" fill="#F0F0F0"/>
<path id="Vector_30" opacity="0.15" d="M23.65 13.06L26.94 12.25L25.8 8.71001C25.5014 8.67101 25.201 8.64765 24.9 8.64001L25.46 7.64001L25.14 6.64001L22.31 6.85001L21.89 7.58002L23.65 13.06Z" fill="white"/>
<path id="Vector_31" opacity="0.15" d="M14 16.75C14.9515 17.0901 15.9431 17.3052 16.95 17.39L17.69 17.48L15.63 11.09C14.6589 11.7349 13.8482 12.5935 13.26 13.6C13.0998 13.8755 12.969 14.1671 12.87 14.47L13.52 16.47C13.6726 16.5755 13.8331 16.6691 14 16.75Z" fill="white"/>
<path id="Vector_32" opacity="0.15" d="M18.41 19.79C17.9246 19.9668 17.4158 20.0713 16.9 20.1C15.23 20.23 14.61 19.74 14.9 18.87L14.33 19.01L16.15 24.65L17.21 22.77C17.8853 22.6445 18.5531 22.4809 19.21 22.28L18.41 19.79Z" fill="white"/>
<path id="Vector_33" opacity="0.15" d="M12.26 22.94C12.6365 23.0084 13.0175 23.0485 13.4 23.06L12.7 24.3L12.94 25.05L14.62 24.92H14.91L13.11 19.33L11.24 19.79L12.26 22.94Z" fill="white"/>
<path id="Vector_34" opacity="0.15" d="M24.3101 15.09L25.1001 17.54C25.193 17.3012 25.26 17.0531 25.3 16.8C25.3503 16.4453 25.2801 16.084 25.1006 15.7739C24.9211 15.4639 24.6427 15.2231 24.3101 15.09Z" fill="white"/>
<path id="Vector_35" d="M17.19 22.77L18.43 24.59L17.27 26.64L16.03 24.81L17.19 22.77Z" fill="#FBA528"/>
<path id="Vector_36" opacity="0.13" d="M17.19 22.77L18.43 24.59L17.27 26.64L16.03 24.81L17.19 22.77Z" fill="#FBA528"/>
<path id="Vector_37" d="M21.14 8.93002L20.74 9.02002L20.28 9.13002L19.69 9.28002L19 9.49002L18.63 9.62003L18.25 9.76003L17.85 9.92002L17.45 10.09C17.19 10.22 16.92 10.34 16.66 10.49C16.4 10.64 16.15 10.78 15.9 10.93C15.65 11.08 15.42 11.26 15.21 11.43C15 11.6 14.79 11.78 14.6 11.94L14.34 12.2L14.21 12.32L14.1 12.44C13.96 12.61 13.82 12.76 13.72 12.9C13.62 13.04 13.52 13.16 13.45 13.27L13.24 13.6L13.44 13.26C13.5188 13.1282 13.6056 13.0012 13.7 12.88C13.8097 12.7162 13.9335 12.5623 14.07 12.42L14.17 12.29L14.3 12.16L14.55 11.9C14.7422 11.7141 14.946 11.5404 15.16 11.38C15.37 11.2 15.61 11.04 15.85 10.87C16.09 10.7 16.35 10.55 16.62 10.42C16.89 10.29 17.15 10.15 17.42 10.02L17.82 9.85002L18.22 9.69003L18.61 9.55003L18.99 9.44003C19.23 9.35003 19.47 9.30002 19.68 9.24002C19.89 9.18002 20.1 9.14002 20.28 9.10002L20.74 9.01003L21.14 8.93002Z" fill="white"/>
<path id="Vector_38" d="M16.03 24.8101L12.24 25.1101L13.4 23.0601L12.63 24.8701L16.03 24.8101Z" fill="#FAFAFA"/>
<path id="Vector_39" d="M24.9001 8.64003L25.7501 6.80003L22.3101 6.87003L26.0601 6.59003L24.9001 8.64003Z" fill="#FAFAFA"/>
</g>
</g>
</svg>
