<svg width="177" height="164" viewBox="0 0 177 164" fill="none" xmlns="http://www.w3.org/2000/svg">
<g id="freepik--coins--inject-8">
<g id="freepik--coin--inject-8">
<path id="Vector" d="M166.55 104.53H175.02V121.86C175.02 123.941 174.741 126.013 174.19 128.02C173.99 128.72 173.75 129.42 173.49 130.12C172.118 133.607 170.115 136.81 167.58 139.57C166.633 140.622 165.632 141.623 164.58 142.57C163.463 143.601 162.295 144.576 161.08 145.49C159.449 146.748 157.754 147.92 156 149C154.08 150.17 152.08 151.26 150 152.29C148.42 153.06 146.8 153.79 145.12 154.48C120.6 164.61 86.79 165.84 59.81 157.62C57.97 157.06 56.17 156.457 54.41 155.81C51.88 154.88 49.41 153.87 47.06 152.76C45.12 151.85 43.29 150.91 41.56 149.92C40.07 149.07 38.65 148.19 37.32 147.29C35.99 146.39 34.73 145.47 33.56 144.53C30.3299 141.999 27.5042 138.992 25.18 135.61C24.73 134.94 24.3 134.26 23.92 133.61C22.2982 130.798 21.2417 127.697 20.81 124.48C20.688 123.515 20.6313 122.543 20.64 121.57V105.18H28.39C29.01 104.51 29.66 103.84 30.39 103.18C33.2384 100.497 36.3663 98.1263 39.72 96.1099C41.8806 94.7971 44.1068 93.5956 46.39 92.5099C49.4576 91.0483 52.606 89.7629 55.82 88.6599C78 80.9899 106.24 79.96 130.24 85.92C133.747 86.784 137.208 87.8254 140.61 89.0399C143.4 90.0399 146.1 91.1399 148.69 92.3499C152.405 94.0676 155.964 96.1018 159.33 98.4299C161.928 100.225 164.346 102.268 166.55 104.53Z" fill="#FBA528"/>
<path id="Vector_2" opacity="0.15" d="M76.3901 161.32V126.14L89.2701 127.49V162.7C84.9301 162.44 80.6201 162 76.3901 161.32Z" fill="white"/>
<path id="Vector_3" opacity="0.1" d="M175 121.83C175 123.911 174.721 125.983 174.17 127.99C173.97 128.69 173.73 129.39 173.47 130.09C172.098 133.577 170.095 136.78 167.56 139.54C167.22 139.92 166.86 140.29 166.5 140.67V104.47L166.56 104.53H175.03L175 121.83Z" fill="#FBA528"/>
<path id="Vector_4" opacity="0.15" d="M132.07 105.66L138.68 104.1V156.82C136.573 157.487 134.417 158.123 132.21 158.73L132.07 105.66Z" fill="white"/>
<path id="Vector_5" opacity="0.15" d="M115 162V116.3L127.88 117.3V159.85C123.626 160.782 119.327 161.5 115 162Z" fill="white"/>
<path id="Vector_6" opacity="0.15" d="M20.5801 105.09H28.3301C28.9501 104.42 29.6001 103.75 30.3301 103.09C33.1784 100.407 36.3063 98.0363 39.6601 96.0199C41.8207 94.7071 44.0469 93.5056 46.3301 92.42C49.3976 90.9583 52.5461 89.6729 55.7601 88.5699C58.8668 87.5033 62.0834 86.5666 65.4101 85.7599L65.4701 159.15C63.5601 158.68 61.6701 158.15 59.8201 157.6C57.9701 157.05 56.1801 156.44 54.4201 155.79C51.8901 154.86 49.4201 153.85 47.0701 152.74C45.1301 151.83 43.3001 150.89 41.5701 149.9C40.0801 149.05 38.6601 148.17 37.3301 147.27C36.0001 146.37 34.7401 145.45 33.5701 144.51C30.34 141.979 27.5142 138.972 25.1901 135.59C24.7401 134.92 24.3101 134.24 23.9301 133.59C22.3083 130.778 21.2518 127.677 20.8201 124.46C20.6981 123.495 20.6413 122.523 20.6501 121.55L20.5801 105.09Z" fill="white"/>
<path id="Vector_7" opacity="0.15" d="M25.1401 135.55C24.6901 134.88 24.2601 134.2 23.8801 133.55C22.2583 130.738 21.2018 127.637 20.7701 124.42C20.6481 123.455 20.5914 122.483 20.6001 121.51V105.12H28.3501L28.4501 105.02L31.0601 106.02V142.48C28.8166 140.415 26.8291 138.088 25.1401 135.55Z" fill="white"/>
<path id="Vector_8" d="M148.58 73.6899C145.99 72.4799 143.29 71.3699 140.5 70.3799C137.099 69.1623 133.638 68.1209 130.13 67.2599C106.13 61.2599 77.89 62.3299 55.71 69.9999C52.4954 71.1011 49.3468 72.3866 46.2801 73.8499C43.9969 74.9356 41.7706 76.1371 39.61 77.4499C36.2563 79.4663 33.1284 81.8365 30.28 84.5199C27.5094 87.0938 25.1875 90.1119 23.4101 93.4499C21.0882 97.7006 20.1612 102.574 20.7601 107.38C21.1944 110.592 22.2471 113.689 23.86 116.5C24.25 117.18 24.67 117.86 25.12 118.5C27.4476 121.885 30.2767 124.896 33.5101 127.43C34.6901 128.37 35.94 129.3 37.27 130.2C38.6 131.1 40.02 131.97 41.52 132.83C43.24 133.83 45.0801 134.76 47.0101 135.66C49.3701 136.77 51.83 137.79 54.36 138.71C56.1267 139.377 57.93 139.98 59.77 140.52C86.77 148.74 120.55 147.52 145.08 137.38C146.75 136.69 148.38 135.96 149.95 135.19C152.05 134.19 154.06 133.07 155.95 131.9C157.84 130.73 159.48 129.62 161.05 128.43C162.3 127.48 163.47 126.5 164.55 125.51C165.605 124.566 166.606 123.565 167.55 122.51C170.085 119.745 172.091 116.538 173.47 113.05C173.73 112.35 173.96 111.65 174.16 110.95C175.015 107.941 175.229 104.787 174.79 101.69C173.971 96.6529 171.765 91.9436 168.42 88.0899C165.737 84.9103 162.639 82.1052 159.21 79.7499C155.847 77.4292 152.29 75.4017 148.58 73.6899Z" fill="#FBA528"/>
<path id="Vector_9" opacity="0.1" d="M148.58 73.6899C145.99 72.4799 143.29 71.3699 140.5 70.3799C137.099 69.1623 133.638 68.1209 130.13 67.2599C106.13 61.2599 77.89 62.3299 55.71 69.9999C52.4954 71.1011 49.3468 72.3866 46.2801 73.8499C43.9969 74.9356 41.7706 76.1371 39.61 77.4499C36.2563 79.4663 33.1284 81.8365 30.28 84.5199C27.5094 87.0938 25.1875 90.1119 23.4101 93.4499C21.0882 97.7006 20.1612 102.574 20.7601 107.38C21.1944 110.592 22.2471 113.689 23.86 116.5C24.25 117.18 24.67 117.86 25.12 118.5C27.4476 121.885 30.2767 124.896 33.5101 127.43C34.6901 128.37 35.94 129.3 37.27 130.2C38.6 131.1 40.02 131.97 41.52 132.83C43.24 133.83 45.0801 134.76 47.0101 135.66C49.3701 136.77 51.83 137.79 54.36 138.71C56.1267 139.377 57.93 139.98 59.77 140.52C86.77 148.74 120.55 147.52 145.08 137.38C146.75 136.69 148.38 135.96 149.95 135.19C152.05 134.19 154.06 133.07 155.95 131.9C157.84 130.73 159.48 129.62 161.05 128.43C162.3 127.48 163.47 126.5 164.55 125.51C165.605 124.566 166.606 123.565 167.55 122.51C170.085 119.745 172.091 116.538 173.47 113.05C173.73 112.35 173.96 111.65 174.16 110.95C175.015 107.941 175.229 104.787 174.79 101.69C173.971 96.6529 171.765 91.9436 168.42 88.0899C165.737 84.9103 162.639 82.1052 159.21 79.7499C155.847 77.4292 152.29 75.4017 148.58 73.6899Z" fill="white"/>
<path id="Vector_10" opacity="0.2" d="M148.58 73.6899C145.99 72.4799 143.29 71.3699 140.5 70.3799C137.099 69.1623 133.638 68.1209 130.13 67.2599C106.13 61.2599 77.89 62.3299 55.71 69.9999C52.4954 71.1011 49.3468 72.3866 46.2801 73.8499C43.9969 74.9356 41.7706 76.1371 39.61 77.4499C36.2563 79.4663 33.1284 81.8365 30.28 84.5199C27.5094 87.0938 25.1875 90.1119 23.4101 93.4499C21.0882 97.7006 20.1612 102.574 20.7601 107.38C21.1944 110.592 22.2471 113.689 23.86 116.5C24.25 117.18 24.67 117.86 25.12 118.5C27.4476 121.885 30.2767 124.896 33.5101 127.43C34.6901 128.37 35.94 129.3 37.27 130.2C38.6 131.1 40.02 131.97 41.52 132.83C43.24 133.83 45.0801 134.76 47.0101 135.66C49.3701 136.77 51.83 137.79 54.36 138.71C56.1267 139.377 57.93 139.98 59.77 140.52C86.77 148.74 120.55 147.52 145.08 137.38C146.75 136.69 148.38 135.96 149.95 135.19C152.05 134.19 154.06 133.07 155.95 131.9C157.84 130.73 159.48 129.62 161.05 128.43C162.3 127.48 163.47 126.5 164.55 125.51C165.605 124.566 166.606 123.565 167.55 122.51C170.085 119.745 172.091 116.538 173.47 113.05C173.73 112.35 173.96 111.65 174.16 110.95C175.015 107.941 175.229 104.787 174.79 101.69C173.971 96.6529 171.765 91.9436 168.42 88.0899C165.737 84.9103 162.639 82.1052 159.21 79.7499C155.847 77.4292 152.29 75.4017 148.58 73.6899Z" fill="white"/>
<path id="Vector_11" opacity="0.15" d="M65.4501 142.11C63.5301 141.64 61.63 141.11 59.77 140.55C57.91 139.99 56.13 139.39 54.36 138.74C51.83 137.82 49.3601 136.8 47.0101 135.69C45.0801 134.79 43.24 133.84 41.52 132.86C40.02 132 38.61 131.13 37.27 130.23C35.93 129.33 34.6901 128.4 33.5101 127.46C30.2767 124.926 27.4476 121.915 25.12 118.53C24.67 117.86 24.25 117.18 23.86 116.53C22.2471 113.719 21.1944 110.622 20.7601 107.41C20.1612 102.604 21.0882 97.7306 23.4101 93.4799C25.1875 90.1419 27.5094 87.1238 30.28 84.5499C33.1284 81.8665 36.2563 79.4963 39.61 77.4799C41.49 76.3299 43.47 75.2699 45.52 74.2599L65.4501 142.11Z" fill="white"/>
<path id="Vector_12" opacity="0.15" d="M31.0001 125.26C28.795 123.255 26.8347 120.996 25.1601 118.53C24.7101 117.86 24.29 117.18 23.9 116.53C22.2872 113.719 21.2344 110.622 20.8 107.41C20.3059 103.493 20.8436 99.515 22.36 95.8699L31.0001 125.26Z" fill="white"/>
<path id="Vector_13" opacity="0.15" d="M89.2302 145.69C84.8902 145.43 80.5901 144.96 76.3701 144.31L54.6602 70.3799L55.6602 69.9999C59.0775 68.8255 62.5519 67.8242 66.0702 66.9999L89.2302 145.69Z" fill="white"/>
<path id="Vector_14" opacity="0.15" d="M127.88 142.76C123.627 143.722 119.328 144.47 115 145L91.1101 63.6299C95.6001 63.4299 100.11 63.4399 104.64 63.6299L127.88 142.76Z" fill="white"/>
<path id="Vector_15" opacity="0.15" d="M138.66 139.79C136.527 140.49 134.353 141.133 132.14 141.72L109.3 63.9199C111.75 64.1199 114.19 64.3699 116.61 64.6999L138.66 139.79Z" fill="white"/>
<path id="Vector_16" opacity="0.3" d="M152.4 75.6199C153.4 76.1599 154.4 76.7099 155.33 77.2799L156.27 77.8399L157.21 78.4399C157.89 78.8799 158.57 79.3199 159.21 79.7699C162.64 82.1252 165.737 84.9303 168.42 88.1099C171.766 91.9636 173.971 96.6729 174.79 101.71C175.23 104.807 175.015 107.961 174.16 110.97C173.96 111.637 173.73 112.337 173.47 113.07C172.091 116.558 170.085 119.765 167.55 122.53C167.22 122.91 166.86 123.28 166.49 123.66L152.4 75.6199Z" fill="#FBA528"/>
<path id="Vector_17" d="M135.44 81.4999C112.39 70.7999 78.0001 71.5899 56.9001 82.9999C56.0101 83.4799 55.1201 83.9999 54.2801 84.5099C33.4801 97.3199 36.1001 116.74 60.1401 127.9C84.1801 139.06 120.51 137.72 141.31 124.9C142.15 124.38 142.97 123.84 143.73 123.3C161.86 110.51 158.5 92.1999 135.44 81.4999Z" fill="#FBA528"/>
<path id="Vector_18" opacity="0.4" d="M135.44 81.4999C112.39 70.7999 78.0001 71.5899 56.9001 82.9999C56.0101 83.4799 55.1201 83.9999 54.2801 84.5099C33.4801 97.3199 36.1001 116.74 60.1401 127.9C84.1801 139.06 120.51 137.72 141.31 124.9C142.15 124.38 142.97 123.84 143.73 123.3C161.86 110.51 158.5 92.1999 135.44 81.4999Z" fill="#FBA528"/>
<path id="Vector_19" d="M133.77 82.53C133.03 82.19 132.27 81.85 131.5 81.53C109.5 72.36 78.2301 73.42 58.7201 83.94L58.1901 84.22C57.5201 84.6 56.8601 84.98 56.1901 85.38C52.6715 87.4526 49.5523 90.1383 46.9801 93.31C41.7601 100.01 41.4401 107.48 45.8201 114.24C48.3901 118.24 52.5801 121.93 58.3601 125.1C59.4501 125.7 60.5901 126.28 61.7901 126.83C62.9901 127.38 64.0201 127.83 65.1701 128.29C67.6395 129.263 70.1599 130.1 72.7201 130.8C90.9001 135.8 112.94 135 129.6 128.71C131.922 127.849 134.19 126.847 136.39 125.71C137.39 125.17 138.39 124.61 139.39 124.02C140.39 123.43 140.98 123.02 141.71 122.49C141.92 122.35 142.12 122.2 142.32 122.05C147.18 118.49 150.32 114.5 151.81 110.38C154.33 103.38 152.01 95.99 145.05 89.74C141.664 86.7967 137.863 84.3674 133.77 82.53Z" fill="#FBA528"/>
<path id="Vector_20" opacity="0.5" d="M133.77 82.53C133.03 82.19 132.27 81.85 131.5 81.53C109.5 72.36 78.2301 73.42 58.7201 83.94L58.1901 84.22C57.5201 84.6 56.8601 84.98 56.1901 85.38C52.6715 87.4526 49.5523 90.1383 46.9801 93.31C41.7601 100.01 41.4401 107.48 45.8201 114.24C48.3901 118.24 52.5801 121.93 58.3601 125.1C59.4501 125.7 60.5901 126.28 61.7901 126.83C62.9901 127.38 64.0201 127.83 65.1701 128.29C67.6395 129.263 70.1599 130.1 72.7201 130.8C90.9001 135.8 112.94 135 129.6 128.71C131.922 127.849 134.19 126.847 136.39 125.71C137.39 125.17 138.39 124.61 139.39 124.02C140.39 123.43 140.98 123.02 141.71 122.49C141.92 122.35 142.12 122.2 142.32 122.05C147.18 118.49 150.32 114.5 151.81 110.38C154.33 103.38 152.01 95.99 145.05 89.74C141.664 86.7967 137.863 84.3674 133.77 82.53Z" fill="#FBA528"/>
<path id="Vector_21" d="M131.52 88C132.3 88.31 133.05 88.65 133.79 89C137.879 90.8246 141.674 93.2478 145.05 96.19C149.12 99.83 151.59 103.86 152.45 107.98C152.287 108.788 152.067 109.583 151.79 110.36C150.31 114.48 147.16 118.47 142.3 122.03C142.1 122.18 141.9 122.33 141.69 122.47C140.96 122.99 140.18 123.47 139.37 124C138.56 124.53 137.43 125.15 136.37 125.69C134.17 126.827 131.902 127.829 129.58 128.69C112.92 134.98 90.8801 135.79 72.7001 130.78C70.1399 130.08 67.6195 129.243 65.1501 128.27C64.0001 127.81 62.8701 127.33 61.7701 126.81C60.6701 126.29 59.4301 125.68 58.3401 125.08C52.5601 121.91 48.3401 118.19 45.8001 114.22C44.5197 112.284 43.6077 110.127 43.1101 107.86C43.7557 104.894 45.0804 102.118 46.9801 99.75C49.5586 96.5805 52.6806 93.8953 56.2001 91.82C56.8401 91.42 57.5101 91.04 58.2001 90.67L58.7301 90.38C78.2601 79.89 109.56 78.83 131.52 88Z" fill="#FBA528"/>
<path id="Vector_22" opacity="0.25" d="M131.52 88C132.3 88.31 133.05 88.65 133.79 89C137.879 90.8246 141.674 93.2478 145.05 96.19C149.12 99.83 151.59 103.86 152.45 107.98C152.287 108.788 152.067 109.583 151.79 110.36C150.31 114.48 147.16 118.47 142.3 122.03C142.1 122.18 141.9 122.33 141.69 122.47C140.96 122.99 140.18 123.47 139.37 124C138.56 124.53 137.43 125.15 136.37 125.69C134.17 126.827 131.902 127.829 129.58 128.69C112.92 134.98 90.8801 135.79 72.7001 130.78C70.1399 130.08 67.6195 129.243 65.1501 128.27C64.0001 127.81 62.8701 127.33 61.7701 126.81C60.6701 126.29 59.4301 125.68 58.3401 125.08C52.5601 121.91 48.3401 118.19 45.8001 114.22C44.5197 112.284 43.6077 110.127 43.1101 107.86C43.7557 104.894 45.0804 102.118 46.9801 99.75C49.5586 96.5805 52.6806 93.8953 56.2001 91.82C56.8401 91.42 57.5101 91.04 58.2001 90.67L58.7301 90.38C78.2601 79.89 109.56 78.83 131.52 88Z" fill="#FBA528"/>
<path id="Vector_23" d="M173.48 113.07C164.74 132.5 140.29 140.25 120.36 143.75C90.0601 148.11 57.0801 144.46 33.6501 127.22H33.7001C27.3301 122.22 21.9001 115.49 20.7601 107.35C21.7601 115.57 27.0001 122.52 33.3701 127.67C52.2401 142.3 78.3701 147.04 103.37 146.34C128.52 144.86 162.05 138.09 173.48 113.07Z" fill="#F5F5F5"/>
<path id="Vector_24" d="M66.0002 119C74.5602 122.59 83.0001 121 90.7701 118.26L88.7101 120.38V129.27C90.4504 129.684 92.2184 129.971 94.0002 130.13C97.0727 130.385 100.165 130.271 103.21 129.79C108.208 128.961 113.049 127.366 117.56 125.06L125.1 128.23L135.32 122V113.12L133.41 112.3L132.99 112.12C133.149 111.442 133.22 110.746 133.2 110.05C133.196 109.815 133.176 109.582 133.14 109.35C133.01 108.25 133.24 103.23 133.2 101.16C133.2 100.91 133.2 100.69 133.13 100.46C132.84 97.9799 130.77 95.7499 126.55 93.9899C122.283 92.2662 117.649 91.6505 113.08 92.2L111.93 92.3399H111.81L110.61 92.54C110.26 92.6 109.91 92.6599 109.56 92.7399C109.42 92.7399 109.27 92.7899 109.14 92.8299C109.01 92.8699 108.59 92.9299 108.34 92.9999C106.144 93.5225 103.977 94.1635 101.85 94.92C100.91 95.25 99.9802 95.6 99.0702 95.92L101.76 93.1199V84.23C93.0902 82.58 83.8402 83.9799 74.7602 88.4299L67.2202 85.29L57.1501 91.7099V100.6L59.5102 101.6C59.3464 102.144 59.272 102.712 59.2902 103.28V103.35C59.3602 104.73 59.2302 110.61 59.2902 112.17V112.24C59.4202 114.83 61.5702 117.15 66.0002 119Z" fill="#FBA528"/>
<path id="Vector_25" opacity="0.15" d="M133.19 101.54C133.19 103.82 133.03 108.29 133.19 109.31C133.19 109.55 133.19 109.77 133.25 110.02C133.265 110.72 133.191 111.419 133.03 112.1L127.61 109.82C127.61 109.82 133 107.18 133.19 101.54Z" fill="#FBA528"/>
<path id="Vector_26" opacity="0.45" d="M78.4701 101.41C76.2101 100.41 75.8301 98.6999 79.9901 96.0199C84.4501 93.1899 89.0401 92.4499 92.9401 93.4299L101.76 84.2399V93.1199L99.1001 95.92C99.0001 95.92 98.9301 95.9899 98.8301 96.0299C97.3801 96.5799 95.9801 97.15 94.6401 97.7C94.1001 97.95 93.5701 98.1699 93.0501 98.3699C90.1856 99.712 87.2114 100.806 84.1601 101.64C82.903 101.979 81.5921 102.07 80.3001 101.91C79.6706 101.825 79.0552 101.657 78.4701 101.41Z" fill="#FBA528"/>
<path id="Vector_27" opacity="0.2" d="M59.4701 101.57L57.1301 100.57V91.6899L64.6401 94.8399C61.8501 97.1799 60.0601 99.4499 59.4701 101.57Z" fill="#FBA528"/>
<path id="Vector_28" opacity="0.15" d="M125.13 119.34L135.32 113.08V122L125.12 128.29L117.6 125.11C113.088 127.42 108.243 129.012 103.24 129.83C98.422 130.642 93.4893 130.468 88.7401 129.32V120.43C93.4893 121.578 98.422 121.752 103.24 120.94C108.244 120.127 113.09 118.534 117.6 116.22L125.13 119.34Z" fill="#FBA528"/>
<path id="Vector_29" opacity="0.2" d="M117.61 125.07C114.085 127.258 110.218 128.84 106.17 129.75C102.194 130.694 98.0694 130.83 94.04 130.15C98.0609 130.095 102.065 129.626 105.99 128.75C107.99 128.32 109.9 127.75 111.84 127.15C113.78 126.55 115.68 125.8 117.61 125.07Z" fill="#FBA528"/>
<path id="Vector_30" opacity="0.35" d="M59.2701 112.21C59.2001 110.64 59.3401 104.77 59.2701 103.37C59.4301 106 61.5601 108.31 66.0201 110.18C75.9601 114.32 85.6301 111.6 94.4801 108.05C102.69 104.72 108.66 101.19 113.48 103.19C116.48 104.46 115.63 106.45 112.35 108.55C110.26 109.871 107.923 110.751 105.481 111.136C103.04 111.521 100.545 111.403 98.1501 110.79L90.8301 118.33C82.9901 121.1 74.6101 122.63 66.0701 119.06C61.5601 117.15 59.4301 114.84 59.2701 112.21Z" fill="#FBA528"/>
<path id="Vector_31" d="M92.9401 102.32V93.43L101.75 84.23V93.12L92.9401 102.32Z" fill="#FBA528"/>
<path id="Vector_32" opacity="0.15" d="M92.9401 102.32V93.43L101.75 84.23V93.12L92.9401 102.32Z" fill="#FBA528"/>
<path id="Vector_33" d="M57.1201 91.71L64.6601 94.86L59.4901 101.58L57.1301 100.6L57.1201 91.71Z" fill="#FBA528"/>
<path id="Vector_34" opacity="0.45" d="M57.1201 91.71L64.6601 94.86L59.4901 101.58L57.1301 100.6L57.1201 91.71Z" fill="#FBA528"/>
<path id="Vector_35" d="M133.41 112.27L127.58 109.81C127.58 109.81 133.31 107.04 133.2 101.13C133.2 100.88 133.2 100.66 133.13 100.43C132.84 97.9499 130.77 95.7199 126.55 93.9599C122.283 92.2362 117.649 91.6204 113.08 92.1699L111.93 92.3099H111.81L110.61 92.5099C110.26 92.5699 109.91 92.6299 109.56 92.7099C109.41 92.7099 109.27 92.7599 109.14 92.7999C109.01 92.8399 108.59 92.8999 108.34 92.9699C106.144 93.4925 103.977 94.1334 101.85 94.8899C100.85 95.2499 99.8502 95.6299 98.8502 96.0299C97.4102 96.5899 95.9901 97.1699 94.6501 97.7199L93.0602 98.3899C90.1894 99.7252 87.2125 100.819 84.1602 101.66C82.9051 101.991 81.5983 102.079 80.3102 101.92C79.6898 101.827 79.0824 101.663 78.5002 101.43C76.2302 100.43 75.8502 98.7099 80.0302 96.0299C84.4802 93.1899 89.0302 92.4499 92.9702 93.4399L101.78 84.2399C93.1102 82.5899 83.8602 83.9899 74.7802 88.4399L67.2401 85.2999L57.1702 91.7199L64.7101 94.8699C61.1101 97.8699 59.2202 100.7 59.3202 103.27V103.34C59.4702 105.96 61.6101 108.27 66.0801 110.14C75.9901 114.29 85.6702 111.56 94.5102 108.01C102.73 104.68 108.7 101.15 113.51 103.16C116.51 104.42 115.65 106.41 112.36 108.52C110.271 109.837 107.935 110.715 105.496 111.1C103.056 111.485 100.564 111.369 98.1702 110.76L88.7902 120.4C93.5429 121.545 98.4776 121.722 103.3 120.92C108.294 120.093 113.131 118.501 117.64 116.2L125.18 119.36L135.37 113.1L133.41 112.27Z" fill="#FBA528"/>
<path id="Vector_36" opacity="0.1" d="M133.41 112.27L127.58 109.81C127.58 109.81 133.31 107.04 133.2 101.13C133.2 100.88 133.2 100.66 133.13 100.43C132.84 97.9499 130.77 95.7199 126.55 93.9599C122.283 92.2362 117.649 91.6204 113.08 92.1699L111.93 92.3099H111.81L110.61 92.5099C110.26 92.5699 109.91 92.6299 109.56 92.7099C109.41 92.7099 109.27 92.7599 109.14 92.7999C109.01 92.8399 108.59 92.8999 108.34 92.9699C106.144 93.4925 103.977 94.1334 101.85 94.8899C100.85 95.2499 99.8502 95.6299 98.8502 96.0299C97.4102 96.5899 95.9901 97.1699 94.6501 97.7199L93.0602 98.3899C90.1894 99.7252 87.2125 100.819 84.1602 101.66C82.9051 101.991 81.5983 102.079 80.3102 101.92C79.6898 101.827 79.0824 101.663 78.5002 101.43C76.2302 100.43 75.8502 98.7099 80.0302 96.0299C84.4802 93.1899 89.0302 92.4499 92.9702 93.4399L101.78 84.2399C93.1102 82.5899 83.8602 83.9899 74.7802 88.4399L67.2401 85.2999L57.1702 91.7199L64.7101 94.8699C61.1101 97.8699 59.2202 100.7 59.3202 103.27V103.34C59.4702 105.96 61.6101 108.27 66.0801 110.14C75.9901 114.29 85.6702 111.56 94.5102 108.01C102.73 104.68 108.7 101.15 113.51 103.16C116.51 104.42 115.65 106.41 112.36 108.52C110.271 109.837 107.935 110.715 105.496 111.1C103.056 111.485 100.564 111.369 98.1702 110.76L88.7902 120.4C93.5429 121.545 98.4776 121.722 103.3 120.92C108.294 120.093 113.131 118.501 117.64 116.2L125.18 119.36L135.37 113.1L133.41 112.27Z" fill="white"/>
<path id="Vector_37" d="M66.0001 110.13C69.7594 111.569 73.7815 112.193 77.8001 111.96C81.9013 111.687 85.9422 110.828 89.8001 109.41C93.7501 108.11 97.5401 106.41 101.41 104.79C103.353 103.962 105.359 103.293 107.41 102.79C109.398 102.278 111.496 102.4 113.41 103.14C111.468 102.487 109.369 102.459 107.41 103.06C105.408 103.611 103.453 104.316 101.56 105.17C97.7401 106.83 93.9301 108.58 89.9601 109.93C86.0272 111.349 81.9059 112.178 77.7301 112.39C75.6829 112.453 73.6347 112.299 71.6201 111.93C69.691 111.521 67.8081 110.918 66.0001 110.13Z" fill="white"/>
<path id="Vector_38" d="M125.13 119.35L125.14 128.24L117.6 125.07L117.59 116.19L125.13 119.35Z" fill="#FBA528"/>
<path id="Vector_39" opacity="0.35" d="M125.13 119.35L125.14 128.24L117.6 125.07L117.59 116.19L125.13 119.35Z" fill="#FBA528"/>
<path id="Vector_40" d="M135.32 113.08L125.17 118.36L117.59 116.19L125.13 119.35L135.32 113.08Z" fill="#FAFAFA"/>
<path id="Vector_41" d="M74.7301 88.4299L67.2301 86.2099L57.1201 91.7099L67.1901 85.2899L74.7301 88.4299Z" fill="#FAFAFA"/>
<path id="Vector_42" opacity="0.15" d="M101.75 84.2299C100.186 83.948 98.6065 83.761 97.02 83.6699L98.25 87.8799L101.75 84.2299Z" fill="white"/>
<path id="Vector_43" opacity="0.15" d="M66.3701 110.25C70.4916 111.902 74.9525 112.53 79.3701 112.08L72.1001 87.33L67.2001 85.33L60.3301 89.71L61.4701 93.56L64.6701 94.9C63.8962 95.5243 63.1583 96.192 62.4601 96.9L66.3701 110.25Z" fill="white"/>
<path id="Vector_44" opacity="0.15" d="M125 93.3699C122.583 92.5528 120.06 92.0913 117.51 91.9999L125.51 119.12L131.51 115.43L130.18 110.91L127.58 109.81C128.256 109.454 128.893 109.028 129.48 108.54L125 93.3699Z" fill="white"/>
<path id="Vector_45" opacity="0.15" d="M111.81 92.2999L110.61 92.4999C110.26 92.5599 109.91 92.6199 109.56 92.6999C109.42 92.6999 109.27 92.7499 109.14 92.7899C109.01 92.8299 108.59 92.8899 108.34 92.9599C106.144 93.4825 103.977 94.1234 101.85 94.8799C101.38 95.0399 100.92 95.2299 100.46 95.3999L103.09 104.4C107.14 102.81 110.52 101.96 113.46 103.19C116.4 104.42 115.6 106.44 112.31 108.55C110.119 109.944 107.647 110.835 105.07 111.16L107.67 120C111.097 119.085 114.421 117.822 117.59 116.23L120.43 117.42L113 92.1499L111.9 92.2899L111.81 92.2999Z" fill="white"/>
</g>
<g id="freepik--coin--inject-8_2">
<path id="Vector_46" d="M156.43 83.48H164.9V100.82C164.9 102.898 164.621 104.966 164.07 106.97C163.87 107.67 163.63 108.37 163.37 109.07C161.999 112.56 159.995 115.767 157.46 118.53C156.513 119.582 155.512 120.583 154.46 121.53C153.346 122.564 152.177 123.539 150.96 124.45C149.322 125.695 147.62 126.853 145.86 127.92C143.94 129.09 141.94 130.19 139.86 131.21C138.28 131.98 136.66 132.72 134.98 133.4C110.46 143.53 76.6501 144.77 49.6701 136.54C47.8301 135.98 46.0301 135.377 44.2701 134.73C41.7401 133.81 39.2701 132.79 36.9201 131.73C34.9801 130.817 33.1468 129.87 31.4201 128.89C29.9201 128.04 28.5101 127.16 27.1701 126.26C25.8301 125.36 24.5901 124.44 23.4201 123.49C20.1716 120.94 17.3321 117.908 15.0001 114.5C14.5601 113.83 14.1301 113.15 13.7501 112.5C12.1297 109.691 11.0733 106.593 10.6401 103.38C10.5204 102.415 10.4603 101.443 10.4601 100.47V84.0499H18.2101C18.8301 83.3699 19.4801 82.6999 20.2101 82.0499C23.0584 79.3665 26.1863 76.9964 29.5401 74.98C31.7007 73.6671 33.9269 72.4656 36.2101 71.3799C39.2788 69.9208 42.4271 68.6355 45.6401 67.5299C67.8201 59.8699 96.0601 58.83 120.06 64.79C123.633 65.6766 127.09 66.7166 130.43 67.9099C133.22 68.9099 135.92 70.0099 138.51 71.2199C142.225 72.9409 145.785 74.9784 149.15 77.3099C151.771 79.1264 154.209 81.1928 156.43 83.48Z" fill="#FBA528"/>
<path id="Vector_47" opacity="0.15" d="M66.27 140.27V105.1L79.15 106.44V141.66C74.81 141.4 70.5 140.93 66.27 140.27Z" fill="white"/>
<path id="Vector_48" opacity="0.1" d="M164.9 100.79C164.9 102.868 164.621 104.936 164.07 106.94C163.87 107.64 163.63 108.34 163.37 109.04C161.999 112.53 159.995 115.737 157.46 118.5C157.12 118.88 156.76 119.25 156.4 119.62V83.4299L156.46 83.4799H164.93L164.9 100.79Z" fill="#FBA528"/>
<path id="Vector_49" opacity="0.15" d="M122 84.6199L128.61 83.0499V135.77C126.503 136.47 124.347 137.11 122.14 137.69L122 84.6199Z" fill="white"/>
<path id="Vector_50" opacity="0.15" d="M104.91 140.92V95.23L117.79 96.17V138.73C113.6 139.66 109.29 140.39 104.91 140.92Z" fill="white"/>
<path id="Vector_51" opacity="0.15" d="M10.4601 84.05H18.2101C18.8301 83.37 19.4801 82.7 20.2101 82.05C23.0584 79.3666 26.1863 76.9964 29.5401 74.98C31.7007 73.6672 33.9269 72.4656 36.2101 71.38C39.2788 69.9209 42.4271 68.6355 45.6401 67.53C48.7401 66.46 51.9701 65.53 55.2801 64.72L55.3401 138.12C53.4401 137.64 51.5501 137.12 49.7001 136.56C47.8501 136 46.0601 135.4 44.3001 134.75C41.7701 133.83 39.3001 132.81 36.9501 131.75C35.0101 130.837 33.1768 129.89 31.4501 128.91C29.9501 128.06 28.5401 127.18 27.2001 126.28C25.8601 125.38 24.6201 124.46 23.4501 123.51C20.1894 120.956 17.3396 117.918 15.0001 114.5C14.5601 113.83 14.1301 113.15 13.7501 112.5C12.1297 109.691 11.0733 106.593 10.6401 103.38C10.5204 102.415 10.4603 101.443 10.4601 100.47V84.05Z" fill="white"/>
<path id="Vector_52" opacity="0.15" d="M15.0001 114.5C14.5601 113.83 14.1301 113.15 13.7501 112.5C12.1297 109.691 11.0733 106.593 10.6401 103.38C10.5204 102.415 10.4603 101.443 10.4601 100.47V84.0499H18.2101C18.2409 84.0141 18.2743 83.9807 18.3101 83.95L20.9201 84.8999V121.35C18.6824 119.309 16.6951 117.01 15.0001 114.5Z" fill="white"/>
<path id="Vector_53" d="M138.46 52.64C135.87 51.43 133.17 50.3299 130.38 49.3299C127.04 48.1399 123.57 47.1 120.01 46.21C96.0101 40.21 67.7701 41.29 45.5901 48.95C42.3754 50.0512 39.2269 51.3366 36.1601 52.7999C33.8758 53.8834 31.6494 55.0851 29.4901 56.4C26.1345 58.4138 23.0064 60.7842 20.1601 63.47C17.3942 66.0482 15.073 69.0655 13.2901 72.4C10.9701 76.6513 10.0432 81.5237 10.6401 86.3299C11.0727 89.5453 12.1255 92.646 13.7401 95.46C14.1301 96.14 14.5501 96.81 15.0001 97.46C17.3252 100.844 20.1546 103.852 23.3901 106.38C24.5701 107.333 25.8234 108.257 27.1501 109.15C28.4901 110.05 29.9001 110.93 31.4001 111.78C33.1201 112.78 34.9601 113.71 36.8901 114.62C39.2501 115.73 41.7101 116.74 44.2401 117.62C46.0001 118.287 47.8034 118.893 49.6501 119.44C76.6501 127.66 110.43 126.44 134.96 116.3C136.63 115.61 138.26 114.88 139.83 114.1C141.93 113.08 143.93 111.983 145.83 110.81C147.589 109.748 149.288 108.589 150.92 107.34C152.138 106.426 153.31 105.452 154.43 104.42C155.485 103.476 156.486 102.475 157.43 101.42C159.963 98.6589 161.966 95.4556 163.34 91.97C163.61 91.27 163.84 90.5699 164.04 89.8599C164.89 86.8505 165.105 83.6969 164.67 80.6C163.849 75.5636 161.644 70.8548 158.3 67C155.615 63.8211 152.514 61.0192 149.08 58.67C145.721 56.3575 142.167 54.34 138.46 52.64Z" fill="#FBA528"/>
<path id="Vector_54" opacity="0.1" d="M138.46 52.64C135.87 51.43 133.17 50.3299 130.38 49.3299C127.04 48.1399 123.57 47.1 120.01 46.21C96.0101 40.21 67.7701 41.29 45.5901 48.95C42.3754 50.0512 39.2269 51.3366 36.1601 52.7999C33.8758 53.8834 31.6494 55.0851 29.4901 56.4C26.1345 58.4138 23.0064 60.7842 20.1601 63.47C17.3942 66.0482 15.073 69.0655 13.2901 72.4C10.9701 76.6513 10.0432 81.5237 10.6401 86.3299C11.0727 89.5453 12.1255 92.646 13.7401 95.46C14.1301 96.14 14.5501 96.81 15.0001 97.46C17.3252 100.844 20.1546 103.852 23.3901 106.38C24.5701 107.333 25.8234 108.257 27.1501 109.15C28.4901 110.05 29.9001 110.93 31.4001 111.78C33.1201 112.78 34.9601 113.71 36.8901 114.62C39.2501 115.73 41.7101 116.74 44.2401 117.62C46.0001 118.287 47.8034 118.893 49.6501 119.44C76.6501 127.66 110.43 126.44 134.96 116.3C136.63 115.61 138.26 114.88 139.83 114.1C141.93 113.08 143.93 111.983 145.83 110.81C147.589 109.748 149.288 108.589 150.92 107.34C152.138 106.426 153.31 105.452 154.43 104.42C155.485 103.476 156.486 102.475 157.43 101.42C159.963 98.6589 161.966 95.4556 163.34 91.97C163.61 91.27 163.84 90.5699 164.04 89.8599C164.89 86.8505 165.105 83.6969 164.67 80.6C163.849 75.5636 161.644 70.8548 158.3 67C155.615 63.8211 152.514 61.0192 149.08 58.67C145.721 56.3575 142.167 54.34 138.46 52.64Z" fill="white"/>
<path id="Vector_55" opacity="0.2" d="M138.46 52.64C135.87 51.43 133.17 50.3299 130.38 49.3299C127.04 48.1399 123.57 47.1 120.01 46.21C96.0101 40.21 67.7701 41.29 45.5901 48.95C42.3754 50.0512 39.2269 51.3366 36.1601 52.7999C33.8758 53.8834 31.6494 55.0851 29.4901 56.4C26.1345 58.4138 23.0064 60.7842 20.1601 63.47C17.3942 66.0482 15.073 69.0655 13.2901 72.4C10.9701 76.6513 10.0432 81.5237 10.6401 86.3299C11.0727 89.5453 12.1255 92.646 13.7401 95.46C14.1301 96.14 14.5501 96.81 15.0001 97.46C17.3252 100.844 20.1546 103.852 23.3901 106.38C24.5701 107.333 25.8234 108.257 27.1501 109.15C28.4901 110.05 29.9001 110.93 31.4001 111.78C33.1201 112.78 34.9601 113.71 36.8901 114.62C39.2501 115.73 41.7101 116.74 44.2401 117.62C46.0001 118.287 47.8034 118.893 49.6501 119.44C76.6501 127.66 110.43 126.44 134.96 116.3C136.63 115.61 138.26 114.88 139.83 114.1C141.93 113.08 143.93 111.983 145.83 110.81C147.589 109.748 149.288 108.589 150.92 107.34C152.138 106.426 153.31 105.452 154.43 104.42C155.485 103.476 156.486 102.475 157.43 101.42C159.963 98.6589 161.966 95.4556 163.34 91.97C163.61 91.27 163.84 90.5699 164.04 89.8599C164.89 86.8505 165.105 83.6969 164.67 80.6C163.849 75.5636 161.644 70.8548 158.3 67C155.615 63.8211 152.514 61.0192 149.08 58.67C145.721 56.3575 142.167 54.34 138.46 52.64Z" fill="white"/>
<path id="Vector_56" opacity="0.15" d="M55.3301 121.07C53.4101 120.59 51.5101 120.07 49.6501 119.51C47.7901 118.95 46.0001 118.34 44.2401 117.69C41.7101 116.77 39.2401 115.76 36.8901 114.69C34.9601 113.78 33.1201 112.84 31.4001 111.85C29.9001 111 28.4901 110.12 27.1501 109.22C25.8101 108.32 24.5701 107.4 23.3901 106.45C20.1546 103.922 17.3252 100.914 15.0001 97.53C14.5501 96.85 14.1301 96.18 13.7401 95.53C12.1253 92.7197 11.0725 89.6222 10.6401 86.41C10.0432 81.6037 10.9701 76.7314 13.2901 72.48C15.073 69.1455 17.3942 66.1282 20.1601 63.55C23.0064 60.8642 26.1345 58.4938 29.4901 56.48C31.3701 55.34 33.3501 54.27 35.4001 53.27L55.3301 121.07Z" fill="white"/>
<path id="Vector_57" opacity="0.15" d="M20.8301 104.21C18.6334 102.203 16.677 99.9479 15.0001 97.49C14.5501 96.81 14.1301 96.14 13.7401 95.49C12.1254 92.6797 11.0725 89.5822 10.6401 86.37C10.146 82.4531 10.6837 78.475 12.2001 74.83L20.8301 104.21Z" fill="white"/>
<path id="Vector_58" opacity="0.15" d="M79.11 124.65C74.77 124.38 70.47 123.92 66.24 123.26L44.54 49.3299L45.54 48.95C48.88 47.8 52.37 46.81 55.95 45.95L79.11 124.65Z" fill="white"/>
<path id="Vector_59" opacity="0.15" d="M117.76 121.72C113.58 122.65 109.27 123.38 104.89 123.91L81.0001 42.5299C85.4901 42.3299 90.0001 42.3499 94.5301 42.5299L117.76 121.72Z" fill="white"/>
<path id="Vector_60" opacity="0.15" d="M128.54 118.74C126.413 119.447 124.24 120.09 122.02 120.67L99.1801 42.87C101.63 43.07 104.07 43.32 106.49 43.65L128.54 118.74Z" fill="white"/>
<path id="Vector_61" opacity="0.3" d="M142.28 54.5699C143.28 55.1199 144.28 55.67 145.21 56.2299L146.15 56.7999C146.47 56.9899 146.78 57.19 147.09 57.39C147.77 57.83 148.45 58.2799 149.09 58.7299C152.524 61.0792 155.625 63.8811 158.31 67.0599C161.654 70.9147 163.859 75.6236 164.68 80.6599C165.115 83.7569 164.9 86.9105 164.05 89.92C163.85 90.63 163.62 91.3299 163.35 92.0299C161.976 95.5156 159.973 98.7189 157.44 101.48C157.11 101.86 156.75 102.24 156.38 102.61L142.28 54.5699Z" fill="#FBA528"/>
<path id="Vector_62" d="M125.32 60.45C102.27 49.75 67.9 50.55 46.78 61.94C45.89 62.42 45 62.94 44.15 63.45C23.36 76.25 25.98 95.6699 50.01 106.83C74.04 117.99 110.39 116.66 131.19 103.83C132.03 103.31 132.84 102.77 133.61 102.23C151.74 89.47 148.38 71.16 125.32 60.45Z" fill="#FBA528"/>
<path id="Vector_63" opacity="0.4" d="M125.32 60.45C102.27 49.75 67.9 50.55 46.78 61.94C45.89 62.42 45 62.94 44.15 63.45C23.36 76.25 25.98 95.6699 50.01 106.83C74.04 117.99 110.39 116.66 131.19 103.83C132.03 103.31 132.84 102.77 133.61 102.23C151.74 89.47 148.38 71.16 125.32 60.45Z" fill="#FBA528"/>
<path id="Vector_64" d="M123.65 61.4899C122.91 61.1399 122.15 60.8099 121.38 60.4899C99.3801 51.3199 68.1101 52.3899 48.6001 62.8999L48.0701 63.19C47.4001 63.56 46.7301 63.95 46.0701 64.34C42.5532 66.4191 39.4345 69.1077 36.8601 72.28C31.6401 78.97 31.3201 86.4499 35.7001 93.2099C38.2701 97.2099 42.4601 100.89 48.2401 104.06C49.3201 104.66 50.4701 105.24 51.6701 105.8C52.8701 106.36 53.9001 106.8 55.0501 107.25C57.5179 108.227 60.0385 109.065 62.6001 109.76C80.7801 114.76 102.82 113.97 119.48 107.67C121.804 106.813 124.072 105.811 126.27 104.67C127.27 104.14 128.27 103.57 129.27 102.99C130.27 102.41 130.85 101.99 131.59 101.46C131.8 101.31 132 101.17 132.2 101.01C137.06 97.45 140.2 93.46 141.69 89.35C144.21 82.35 141.89 74.9599 134.93 68.7099C131.547 65.7598 127.746 63.3268 123.65 61.4899Z" fill="#FBA528"/>
<path id="Vector_65" opacity="0.5" d="M123.65 61.4899C122.91 61.1399 122.15 60.8099 121.38 60.4899C99.3801 51.3199 68.1101 52.3899 48.6001 62.8999L48.0701 63.19C47.4001 63.56 46.7301 63.95 46.0701 64.34C42.5532 66.4191 39.4345 69.1077 36.8601 72.28C31.6401 78.97 31.3201 86.4499 35.7001 93.2099C38.2701 97.2099 42.4601 100.89 48.2401 104.06C49.3201 104.66 50.4701 105.24 51.6701 105.8C52.8701 106.36 53.9001 106.8 55.0501 107.25C57.5179 108.227 60.0385 109.065 62.6001 109.76C80.7801 114.76 102.82 113.97 119.48 107.67C121.804 106.813 124.072 105.811 126.27 104.67C127.27 104.14 128.27 103.57 129.27 102.99C130.27 102.41 130.85 101.99 131.59 101.46C131.8 101.31 132 101.17 132.2 101.01C137.06 97.45 140.2 93.46 141.69 89.35C144.21 82.35 141.89 74.9599 134.93 68.7099C131.547 65.7598 127.746 63.3268 123.65 61.4899Z" fill="#FBA528"/>
<path id="Vector_66" d="M121.4 67C122.18 67.32 122.93 67.65 123.67 68C127.757 69.825 131.551 72.2445 134.93 75.1799C139 78.8299 141.47 82.86 142.33 86.98C142.166 87.7878 141.946 88.583 141.67 89.3599C140.19 93.4699 137.04 97.4599 132.18 101.02C131.98 101.18 131.78 101.32 131.57 101.47C130.83 101.98 130.06 102.47 129.25 103C128.44 103.53 127.31 104.15 126.25 104.68C124.052 105.821 121.784 106.823 119.46 107.68C102.8 113.98 80.7601 114.79 62.5801 109.77C60.0185 109.075 57.4979 108.237 55.0301 107.26C53.8801 106.81 52.7501 106.32 51.6501 105.81C50.5501 105.3 49.3001 104.67 48.2201 104.07C42.4401 100.9 38.2201 97.18 35.6801 93.22C34.4013 91.2827 33.4895 89.1269 32.9901 86.8599C33.6336 83.893 34.9585 81.1165 36.8601 78.75C39.4393 75.5822 42.5571 72.8944 46.0701 70.8099C46.7201 70.4199 47.3801 70.03 48.0701 69.66L48.6001 69.3699C68.1301 58.8499 99.4401 57.78 121.4 67Z" fill="#FBA528"/>
<path id="Vector_67" opacity="0.25" d="M121.4 67C122.18 67.32 122.93 67.65 123.67 68C127.757 69.825 131.551 72.2445 134.93 75.1799C139 78.8299 141.47 82.86 142.33 86.98C142.166 87.7878 141.946 88.583 141.67 89.3599C140.19 93.4699 137.04 97.4599 132.18 101.02C131.98 101.18 131.78 101.32 131.57 101.47C130.83 101.98 130.06 102.47 129.25 103C128.44 103.53 127.31 104.15 126.25 104.68C124.052 105.821 121.784 106.823 119.46 107.68C102.8 113.98 80.7601 114.79 62.5801 109.77C60.0185 109.075 57.4979 108.237 55.0301 107.26C53.8801 106.81 52.7501 106.32 51.6501 105.81C50.5501 105.3 49.3001 104.67 48.2201 104.07C42.4401 100.9 38.2201 97.18 35.6801 93.22C34.4013 91.2827 33.4895 89.1269 32.9901 86.8599C33.6336 83.893 34.9585 81.1165 36.8601 78.75C39.4393 75.5822 42.5571 72.8944 46.0701 70.8099C46.7201 70.4199 47.3801 70.03 48.0701 69.66L48.6001 69.3699C68.1301 58.8499 99.4401 57.78 121.4 67Z" fill="#FBA528"/>
<path id="Vector_68" d="M163.35 92C154.62 111.43 130.17 119.18 110.24 122.68C79.9401 127.03 46.9601 123.38 23.5301 106.14H23.5801C17.2101 101.14 11.7801 94.41 10.6401 86.27C11.6401 94.5 16.8801 101.45 23.2501 106.6C42.1201 121.23 68.2501 125.96 93.2501 125.26C118.39 123.82 151.93 117 163.35 92Z" fill="#F5F5F5"/>
<path id="Vector_69" d="M55.9101 98C64.4701 101.58 72.8601 100 80.6801 97.26L78.6201 99.38V108.26C80.3592 108.682 82.1275 108.973 83.9101 109.13C86.9831 109.382 90.0751 109.264 93.1201 108.78C98.122 107.939 102.963 106.326 107.47 104L115.02 107.16L125.2 100.9V92L123.28 91.1799L122.87 91.01C123.029 90.3285 123.1 89.6294 123.08 88.9299C123.076 88.6955 123.056 88.4617 123.02 88.23C122.89 87.13 123.11 82.1199 123.08 80.0499C123.08 79.7999 123.08 79.57 123.01 79.34C122.71 76.86 120.65 74.63 116.43 72.88C112.174 71.1672 107.555 70.555 103 71.1L101.85 71.25H101.73L100.53 71.44C100.18 71.5 99.8301 71.56 99.4801 71.64L99.0601 71.73C98.7901 71.78 98.5101 71.84 98.2601 71.91C96.064 72.4292 93.8974 73.0668 91.7701 73.82C90.8301 74.15 89.9001 74.5 88.9901 74.87L91.6701 72.06V63.1799C83.0001 61.5199 73.7501 62.93 64.6701 67.38L57.1201 64.23L47.0001 70.67V79.56L49.3601 80.56C49.1969 81.1047 49.1193 81.6714 49.1301 82.2399V82.31C49.2001 83.69 49.0701 89.57 49.1301 91.13V91.19C49.3001 93.79 51.4501 96.1 55.9101 98Z" fill="#FBA528"/>
<path id="Vector_70" opacity="0.15" d="M123.07 80.5C123.07 82.77 122.91 87.25 123.02 88.26C123.02 88.51 123.07 88.73 123.09 88.97C123.105 89.6732 123.031 90.3754 122.87 91.06L117.45 88.78C117.45 88.78 122.92 86.13 123.07 80.5Z" fill="#FBA528"/>
<path id="Vector_71" opacity="0.45" d="M68.3501 80.3599C66.0901 79.4099 65.7101 77.6499 69.8701 74.9699C74.3301 72.1499 78.9201 71.41 82.8201 72.39L91.6401 63.2V72.0699L88.9801 74.8699C88.8801 74.8699 88.8101 74.95 88.7101 74.9799C87.2601 75.53 85.8601 76.1099 84.5201 76.6599C83.9801 76.8999 83.4501 77.1199 82.9301 77.3299C80.0624 78.6699 77.0848 79.7606 74.0301 80.5899C72.7773 80.934 71.4686 81.0257 70.1801 80.8599C69.5506 80.7752 68.9352 80.607 68.3501 80.3599Z" fill="#FBA528"/>
<path id="Vector_72" opacity="0.2" d="M49.3501 80.53L47.0001 79.53V70.65L54.5101 73.8C51.7301 76.13 49.9401 78.4 49.3501 80.53Z" fill="#FBA528"/>
<path id="Vector_73" opacity="0.15" d="M115 98.3L125.2 92V100.89L115 107.2L107.49 104C102.98 106.314 98.1341 107.907 93.1301 108.72C88.312 109.532 83.3793 109.358 78.6301 108.21V99.33C83.3794 100.479 88.3129 100.649 93.1301 99.83C98.1324 99.0155 102.977 97.4265 107.49 95.12L115 98.3Z" fill="#FBA528"/>
<path id="Vector_74" opacity="0.2" d="M107.49 104C103.967 106.195 100.1 107.78 96.0501 108.69C92.0737 109.631 87.9488 109.764 83.9202 109.08C87.9417 109.035 91.9472 108.566 95.8701 107.68C97.8701 107.25 99.7802 106.68 101.72 106.08C103.66 105.48 105.56 104.76 107.49 104Z" fill="#FBA528"/>
<path id="Vector_75" opacity="0.35" d="M49.1501 91.17V91.1199C49.0801 89.5499 49.2201 83.6699 49.1501 82.2799C49.3101 84.9099 51.4301 87.2199 55.9001 89.0799C65.8401 93.2299 75.5101 90.5 84.3601 86.95C92.5701 83.63 98.5401 80.1 103.36 82.1C106.36 83.36 105.51 85.3599 102.23 87.4599C100.139 88.7768 97.8011 89.6536 95.3597 90.0371C92.9183 90.4205 90.4244 90.3024 88.0301 89.6899L80.7101 97.2399C72.8801 100.01 64.5001 101.53 55.9601 97.9599C51.4301 96.1099 49.3101 93.79 49.1501 91.17Z" fill="#FBA528"/>
<path id="Vector_76" d="M82.8201 81.2699V72.39L91.6301 63.1899V72.0699L82.8201 81.2699Z" fill="#FBA528"/>
<path id="Vector_77" opacity="0.15" d="M82.8201 81.2699V72.39L91.6301 63.1899V72.0699L82.8201 81.2699Z" fill="#FBA528"/>
<path id="Vector_78" d="M47.0001 70.67L54.5401 73.81L49.3701 80.54L47.0101 79.56L47.0001 70.67Z" fill="#FBA528"/>
<path id="Vector_79" opacity="0.45" d="M47.0001 70.67L54.5401 73.81L49.3701 80.54L47.0101 79.56L47.0001 70.67Z" fill="#FBA528"/>
<path id="Vector_80" d="M123.28 91.22L117.46 88.7699C117.46 88.7699 123.19 86 123.08 80.09C123.08 79.84 123.08 79.61 123.01 79.38C122.71 76.9 120.65 74.67 116.43 72.92C112.178 71.1937 107.559 70.5677 103 71.1L101.85 71.25H101.73L100.53 71.44C100.18 71.5 99.8301 71.56 99.4801 71.64L99.0601 71.73C98.7901 71.78 98.5101 71.84 98.2601 71.91C96.064 72.4292 93.8974 73.0668 91.7701 73.82C90.7701 74.18 89.7701 74.5599 88.7701 74.9599C87.3201 75.5199 85.9101 76.11 84.5701 76.66L82.9801 77.3299C80.1113 78.6671 77.1339 79.7577 74.0801 80.59C72.8257 80.9241 71.519 81.0158 70.2301 80.8599C69.6095 80.764 69.002 80.5962 68.4201 80.3599C66.1501 79.4099 65.7701 77.6399 69.9501 74.9599C74.4001 72.1199 78.9501 71.39 82.8901 72.38L91.7001 63.1799C83.0301 61.5199 73.7801 62.93 64.7001 67.38L57.1501 64.23L47.0001 70.67L54.5401 73.81C50.9401 76.81 49.0501 79.65 49.1401 82.22V82.29C49.2801 84.9 51.4301 87.2199 55.8901 89.0799C65.8101 93.2299 75.4901 90.51 84.3301 86.95C92.5501 83.62 98.5201 80.0899 103.33 82.1099C106.33 83.3699 105.47 85.3599 102.18 87.4599C100.092 88.7758 97.7582 89.6529 95.3204 90.038C92.8827 90.4231 90.392 90.3081 88.0001 89.7L78.6201 99.35C80.3638 99.7638 82.1351 100.051 83.9201 100.21C86.9897 100.467 90.079 100.349 93.1201 99.8599C98.119 99.0391 102.96 97.4468 107.47 95.14L115.01 98.31L125.19 92L123.28 91.22Z" fill="#FBA528"/>
<path id="Vector_81" opacity="0.1" d="M123.28 91.22L117.46 88.7699C117.46 88.7699 123.19 86 123.08 80.09C123.08 79.84 123.08 79.61 123.01 79.38C122.71 76.9 120.65 74.67 116.43 72.92C112.178 71.1937 107.559 70.5677 103 71.1L101.85 71.25H101.73L100.53 71.44C100.18 71.5 99.8301 71.56 99.4801 71.64L99.0601 71.73C98.7901 71.78 98.5101 71.84 98.2601 71.91C96.064 72.4292 93.8974 73.0668 91.7701 73.82C90.7701 74.18 89.7701 74.5599 88.7701 74.9599C87.3201 75.5199 85.9101 76.11 84.5701 76.66L82.9801 77.3299C80.1113 78.6671 77.1339 79.7577 74.0801 80.59C72.8257 80.9241 71.519 81.0158 70.2301 80.8599C69.6095 80.764 69.002 80.5962 68.4201 80.3599C66.1501 79.4099 65.7701 77.6399 69.9501 74.9599C74.4001 72.1199 78.9501 71.39 82.8901 72.38L91.7001 63.1799C83.0301 61.5199 73.7801 62.93 64.7001 67.38L57.1501 64.23L47.0001 70.67L54.5401 73.81C50.9401 76.81 49.0501 79.65 49.1401 82.22V82.29C49.2801 84.9 51.4301 87.2199 55.8901 89.0799C65.8101 93.2299 75.4901 90.51 84.3301 86.95C92.5501 83.62 98.5201 80.0899 103.33 82.1099C106.33 83.3699 105.47 85.3599 102.18 87.4599C100.092 88.7758 97.7582 89.6529 95.3204 90.038C92.8827 90.4231 90.392 90.3081 88.0001 89.7L78.6201 99.35C80.3638 99.7638 82.1351 100.051 83.9201 100.21C86.9897 100.467 90.079 100.349 93.1201 99.8599C98.119 99.0391 102.96 97.4468 107.47 95.14L115.01 98.31L125.19 92L123.28 91.22Z" fill="white"/>
<path id="Vector_82" d="M55.9001 89.0799C59.6624 90.5215 63.6877 91.1486 67.7101 90.92C71.8099 90.637 75.8495 89.7786 79.7101 88.37C83.6601 87.07 87.4502 85.37 91.3202 83.74C93.2644 82.9163 95.2706 82.2475 97.3202 81.74C99.3093 81.2366 101.406 81.3623 103.32 82.1C101.379 81.4433 99.2804 81.4119 97.3202 82.01C95.3168 82.5597 93.3606 83.2686 91.4702 84.13C87.6502 85.79 83.8401 87.53 79.8701 88.89C75.9366 90.3051 71.8153 91.1307 67.6402 91.34C65.593 91.4035 63.5448 91.2493 61.5302 90.88C59.5981 90.4692 57.7121 89.8662 55.9001 89.0799Z" fill="white"/>
<path id="Vector_83" d="M115.01 98.31L115.02 107.19L107.47 104.03V95.14L115.01 98.31Z" fill="#FBA528"/>
<path id="Vector_84" opacity="0.35" d="M115.01 98.31L115.02 107.19L107.47 104.03V95.14L115.01 98.31Z" fill="#FBA528"/>
<path id="Vector_85" d="M125.19 92.04L115.05 97.31L107.47 95.14L115.01 98.31L125.19 92.04Z" fill="#FAFAFA"/>
<path id="Vector_86" d="M64.6101 67.39L57.1101 65.16L47.0001 70.67L57.0601 64.24L64.6101 67.39Z" fill="#FAFAFA"/>
<path id="Vector_87" opacity="0.15" d="M91.6301 63.19C90.0637 62.9026 88.4805 62.7155 86.8901 62.63L88.1301 66.84L91.6301 63.19Z" fill="white"/>
<path id="Vector_88" opacity="0.15" d="M56.2501 89.21C60.3729 90.8579 64.8326 91.4857 69.2501 91.04L62.0001 66.29L57.0901 64.24L50.2301 68.62L51.3601 72.48L54.5701 73.81C53.7926 74.448 53.0546 75.1325 52.3601 75.86L56.2501 89.21Z" fill="white"/>
<path id="Vector_89" opacity="0.15" d="M114.91 72.32C112.492 71.5068 109.969 71.0486 107.42 70.96L115.42 98.08L121.42 94.38L120.1 89.86L117.5 88.77C118.176 88.4137 118.813 87.9881 119.4 87.5L114.91 72.32Z" fill="white"/>
<path id="Vector_90" opacity="0.15" d="M101.69 71.26L100.49 71.45C100.14 71.51 99.7901 71.57 99.4401 71.65L99.0201 71.74C98.7501 71.79 98.4701 71.85 98.2201 71.92C96.0239 72.4393 93.8574 73.0768 91.7301 73.83L90.3401 74.35L92.9701 83.35C96.9701 81.75 100.4 80.91 103.34 82.14C106.28 83.37 105.48 85.39 102.19 87.49C99.9974 88.8822 97.526 89.7766 94.9501 90.11L97.5501 98.94C100.978 98.0296 104.303 96.7662 107.47 95.17L110.31 96.37L102.91 71.14L101.81 71.28L101.69 71.26Z" fill="white"/>
</g>
<g id="freepik--coin--inject-8_3">
<path id="Vector_91" d="M148.78 61.4399H157.25V78.7699C157.26 80.8518 156.981 82.925 156.42 84.9299C156.22 85.6299 155.99 86.3299 155.72 87.0299C154.346 90.5187 152.343 93.7253 149.81 96.4899C148.861 97.5397 147.86 98.5409 146.81 99.4899C145.73 100.49 144.56 101.49 143.3 102.41C141.662 103.655 139.96 104.813 138.2 105.88C136.29 107.05 134.28 108.14 132.2 109.17C130.62 109.943 128.997 110.673 127.33 111.36C102.8 121.47 69.0001 122.7 42.0001 114.48C40.1601 113.92 38.3601 113.317 36.6001 112.67C34.0701 111.75 31.6001 110.73 29.2501 109.62C27.3201 108.71 25.4801 107.77 23.7501 106.79C22.2601 105.93 20.8401 105.06 19.5101 104.15C18.1801 103.24 16.9301 102.33 15.7501 101.39C12.5165 98.8563 9.6874 95.8451 7.36005 92.4599C6.91005 91.7899 6.49007 91.1099 6.10007 90.4599C4.48414 87.6493 3.428 84.5523 2.99006 81.3399C2.87366 80.3743 2.8169 79.4025 2.82007 78.4299V62.0399H10.5701C11.1901 61.3599 11.8401 60.6899 12.5701 60.0399C15.4184 57.3566 18.5463 54.9863 21.9001 52.9699C24.0606 51.6571 26.2869 50.4556 28.5701 49.3699C31.6403 47.9066 34.7922 46.6211 38.0101 45.5199C60.1801 37.8499 88.4301 36.8199 112.42 42.7799C115.93 43.6454 119.395 44.6867 122.8 45.8999C125.58 46.8999 128.28 47.9999 130.87 49.2099C134.585 50.9276 138.144 52.9618 141.51 55.2899C144.13 57.0957 146.565 59.1557 148.78 61.4399Z" fill="#FBA528"/>
<path id="Vector_92" opacity="0.15" d="M58.6201 118.23V83.0499L71.5001 84.3999V119.62C67.1601 119.35 62.8501 118.89 58.6201 118.23Z" fill="white"/>
<path id="Vector_93" opacity="0.1" d="M157.25 78.74C157.26 80.8219 156.981 82.8951 156.42 84.9C156.22 85.6 155.99 86.3 155.72 87C154.346 90.4888 152.343 93.6954 149.81 96.46C149.48 96.83 149.12 97.21 148.76 97.58V61.38L148.82 61.44H157.29L157.25 78.74Z" fill="#FBA528"/>
<path id="Vector_94" opacity="0.15" d="M114.3 62.57L120.91 61.01V113.73C118.8 114.43 116.64 115.06 114.44 115.64L114.3 62.57Z" fill="white"/>
<path id="Vector_95" opacity="0.15" d="M97.26 118.88V73.1799L110.14 74.1299V116.68C105.886 117.629 101.588 118.363 97.26 118.88Z" fill="white"/>
<path id="Vector_96" opacity="0.15" d="M2.81006 62H10.5601C11.1801 61.32 11.8301 60.65 12.5601 60C15.4084 57.3166 18.5363 54.9464 21.8901 52.93C24.0506 51.6171 26.2769 50.4156 28.5601 49.33C31.6303 47.8666 34.7821 46.5812 38.0001 45.48C41.1001 44.41 44.3301 43.48 47.6401 42.67L47.7001 116.06C45.7901 115.59 43.9 115.06 42.05 114.51C40.2001 113.96 38.4101 113.35 36.6501 112.7C34.1201 111.78 31.65 110.76 29.3 109.65C27.37 108.74 25.53 107.8 23.8 106.82C22.31 105.96 20.8901 105.09 19.5601 104.18C18.2301 103.27 16.98 102.36 15.8 101.42C12.5665 98.8863 9.73741 95.8751 7.41006 92.49C6.96006 91.82 6.54005 91.14 6.15005 90.49C4.53413 87.6793 3.47802 84.5823 3.04007 81.37C2.92367 80.4044 2.86688 79.4325 2.87006 78.46L2.81006 62Z" fill="white"/>
<path id="Vector_97" opacity="0.15" d="M7.37009 92.4599C6.92009 91.7899 6.50008 91.1099 6.11008 90.4599C4.49415 87.6493 3.43804 84.5523 3.0001 81.3399C2.8837 80.3743 2.82691 79.4025 2.83008 78.4299V62.0399H10.5801C10.6109 62.0042 10.6443 61.9707 10.6801 61.9399L13.2901 62.8799V99.3399C11.0497 97.2907 9.06223 94.981 7.37009 92.4599Z" fill="white"/>
<path id="Vector_98" d="M130.81 30.6C128.22 29.39 125.52 28.28 122.73 27.29C119.328 26.0754 115.867 25.034 112.36 24.17C88.36 18.17 60.1201 19.24 37.9501 26.91C34.7321 28.0112 31.5803 29.2966 28.5101 30.76C26.2269 31.8456 24.0006 33.0471 21.84 34.36C18.4863 36.3764 15.3584 38.7466 12.5101 41.43C9.74484 44.0088 7.42372 47.0259 5.64006 50.36C3.33123 54.6152 2.40829 59.485 3.00004 64.29C3.43326 67.5034 4.48967 70.6014 6.11003 73.41C6.49003 74.09 6.91003 74.77 7.36003 75.41C9.68494 78.7971 12.5143 81.8086 15.75 84.34C16.9167 85.2866 18.1667 86.21 19.5 87.11C20.84 88.01 22.25 88.89 23.75 89.74C25.48 90.74 27.31 91.67 29.24 92.57C31.6134 93.6766 34.0634 94.6766 36.59 95.57C38.3634 96.2366 40.1667 96.84 42 97.38C69 105.61 102.78 104.38 127.31 94.24C128.983 93.5733 130.61 92.8433 132.19 92.05C134.29 91.05 136.29 89.93 138.19 88.76C139.948 87.6908 141.65 86.5326 143.29 85.29C144.505 84.3758 145.673 83.4012 146.79 82.37C147.842 81.4233 148.843 80.4219 149.79 79.37C152.322 76.6044 154.325 73.398 155.7 69.91C155.96 69.21 156.2 68.51 156.39 67.81C157.245 64.8013 157.46 61.6467 157.02 58.55C156.201 53.5129 153.995 48.8036 150.65 44.95C147.97 41.768 144.872 38.9626 141.44 36.61C138.075 34.3064 134.519 32.2958 130.81 30.6Z" fill="#FBA528"/>
<path id="Vector_99" opacity="0.1" d="M130.81 30.6C128.22 29.39 125.52 28.28 122.73 27.29C119.328 26.0754 115.867 25.034 112.36 24.17C88.36 18.17 60.1201 19.24 37.9501 26.91C34.7321 28.0112 31.5803 29.2966 28.5101 30.76C26.2269 31.8456 24.0006 33.0471 21.84 34.36C18.4863 36.3764 15.3584 38.7466 12.5101 41.43C9.74484 44.0088 7.42372 47.0259 5.64006 50.36C3.33123 54.6152 2.40829 59.485 3.00004 64.29C3.43326 67.5034 4.48967 70.6014 6.11003 73.41C6.49003 74.09 6.91003 74.77 7.36003 75.41C9.68494 78.7971 12.5143 81.8086 15.75 84.34C16.9167 85.2866 18.1667 86.21 19.5 87.11C20.84 88.01 22.25 88.89 23.75 89.74C25.48 90.74 27.31 91.67 29.24 92.57C31.6134 93.6766 34.0634 94.6766 36.59 95.57C38.3634 96.2366 40.1667 96.84 42 97.38C69 105.61 102.78 104.38 127.31 94.24C128.983 93.5733 130.61 92.8433 132.19 92.05C134.29 91.05 136.29 89.93 138.19 88.76C139.948 87.6908 141.65 86.5326 143.29 85.29C144.505 84.3758 145.673 83.4012 146.79 82.37C147.842 81.4233 148.843 80.4219 149.79 79.37C152.322 76.6044 154.325 73.398 155.7 69.91C155.96 69.21 156.2 68.51 156.39 67.81C157.245 64.8013 157.46 61.6467 157.02 58.55C156.201 53.5129 153.995 48.8036 150.65 44.95C147.97 41.768 144.872 38.9626 141.44 36.61C138.075 34.3064 134.519 32.2958 130.81 30.6Z" fill="white"/>
<path id="Vector_100" opacity="0.2" d="M130.81 30.6C128.22 29.39 125.52 28.28 122.73 27.29C119.328 26.0754 115.867 25.034 112.36 24.17C88.36 18.17 60.1201 19.24 37.9501 26.91C34.7321 28.0112 31.5803 29.2966 28.5101 30.76C26.2269 31.8456 24.0006 33.0471 21.84 34.36C18.4863 36.3764 15.3584 38.7466 12.5101 41.43C9.74484 44.0088 7.42372 47.0259 5.64006 50.36C3.33123 54.6152 2.40829 59.485 3.00004 64.29C3.43326 67.5034 4.48967 70.6014 6.11003 73.41C6.49003 74.09 6.91003 74.77 7.36003 75.41C9.68494 78.7971 12.5143 81.8086 15.75 84.34C16.9167 85.2866 18.1667 86.21 19.5 87.11C20.84 88.01 22.25 88.89 23.75 89.74C25.48 90.74 27.31 91.67 29.24 92.57C31.6134 93.6766 34.0634 94.6766 36.59 95.57C38.3634 96.2366 40.1667 96.84 42 97.38C69 105.61 102.78 104.38 127.31 94.24C128.983 93.5733 130.61 92.8433 132.19 92.05C134.29 91.05 136.29 89.93 138.19 88.76C139.948 87.6908 141.65 86.5326 143.29 85.29C144.505 84.3758 145.673 83.4012 146.79 82.37C147.842 81.4233 148.843 80.4219 149.79 79.37C152.322 76.6044 154.325 73.398 155.7 69.91C155.96 69.21 156.2 68.51 156.39 67.81C157.245 64.8013 157.46 61.6467 157.02 58.55C156.201 53.5129 153.995 48.8036 150.65 44.95C147.97 41.768 144.872 38.9626 141.44 36.61C138.075 34.3064 134.519 32.2958 130.81 30.6Z" fill="white"/>
<path id="Vector_101" opacity="0.15" d="M47.68 98.9999C45.76 98.5199 43.86 97.9999 42 97.4299C40.14 96.8599 38.36 96.2699 36.59 95.6199C34.0634 94.6999 31.6134 93.6999 29.24 92.6199C27.31 91.7199 25.48 90.7699 23.75 89.7899C22.25 88.9399 20.84 88.0599 19.5 87.1599C18.16 86.2599 16.92 85.34 15.75 84.39C12.5143 81.8586 9.68493 78.847 7.36002 75.4599C6.91002 74.7899 6.49002 74.1099 6.11002 73.4599C4.48966 70.6513 3.43325 67.5534 3.00003 64.3399C2.41132 59.5339 3.33775 54.6641 5.65003 50.4099C7.43369 47.0759 9.75481 44.0588 12.52 41.4799C15.3684 38.7966 18.4963 36.4263 21.85 34.4099C23.73 33.2599 25.71 32.1999 27.76 31.1899L47.68 98.9999Z" fill="white"/>
<path id="Vector_102" opacity="0.15" d="M13.19 82.17C10.9849 80.1646 9.02467 77.9056 7.35 75.44C6.9 74.77 6.48 74.09 6.1 73.44C4.47964 70.6314 3.4232 67.5334 2.98998 64.32C2.49583 60.4031 3.03358 56.4251 4.54998 52.78L13.19 82.17Z" fill="white"/>
<path id="Vector_103" opacity="0.15" d="M71.4601 102.6C67.1301 102.34 62.8201 101.88 58.6001 101.22L36.8901 27.29L37.9501 26.91C41.3675 25.7355 44.8419 24.7342 48.3601 23.91L71.4601 102.6Z" fill="white"/>
<path id="Vector_104" opacity="0.15" d="M110.12 99.67C105.867 100.62 101.568 101.351 97.2401 101.86L73.3501 20.49C77.8501 20.29 82.3501 20.3 86.8801 20.49L110.12 99.67Z" fill="white"/>
<path id="Vector_105" opacity="0.15" d="M120.89 96.7C118.77 97.4 116.59 98.05 114.37 98.63L91.53 20.83C93.98 21.03 96.42 21.28 98.84 21.61L120.89 96.7Z" fill="white"/>
<path id="Vector_106" opacity="0.3" d="M134.63 32.53C135.63 33.07 136.63 33.63 137.56 34.19L138.5 34.75L139.44 35.35C140.13 35.79 140.8 36.23 141.44 36.68C144.872 39.0326 147.97 41.8379 150.65 45.02C153.995 48.8736 156.201 53.583 157.02 58.62C157.46 61.7167 157.245 64.8713 156.39 67.88C156.2 68.58 155.96 69.28 155.7 69.98C154.325 73.4681 152.322 76.6744 149.79 79.44C149.45 79.82 149.09 80.19 148.73 80.57L134.63 32.53Z" fill="#FBA528"/>
<path id="Vector_107" d="M117.68 38.41C94.62 27.71 60.26 28.51 39.13 39.89C38.24 40.38 37.35 40.8899 36.51 41.3999C15.71 54.2099 18.33 73.63 42.37 84.79C66.41 95.95 102.74 94.61 123.54 81.79C124.39 81.27 125.2 80.7299 125.97 80.1899C144.09 67.4199 140.73 49.11 117.68 38.41Z" fill="#FBA528"/>
<path id="Vector_108" opacity="0.4" d="M117.68 38.41C94.62 27.71 60.26 28.51 39.13 39.89C38.24 40.38 37.35 40.8899 36.51 41.3999C15.71 54.2099 18.33 73.63 42.37 84.79C66.41 95.95 102.74 94.61 123.54 81.79C124.39 81.27 125.2 80.7299 125.97 80.1899C144.09 67.4199 140.73 49.11 117.68 38.41Z" fill="#FBA528"/>
<path id="Vector_109" d="M116 39.44C115.26 39.1 114.51 38.76 113.73 38.44C91.7301 29.27 60.4601 30.34 40.9501 40.85L40.4301 41.14C39.7501 41.51 39.0901 41.89 38.4301 42.29C34.9115 44.3626 31.7923 47.0483 29.2201 50.22C24.0001 56.92 23.6901 64.39 28.0601 71.16C30.6401 75.16 34.8201 78.84 40.6001 82.01C41.6901 82.61 42.8301 83.19 44.0301 83.75C45.2301 84.31 46.2601 84.75 47.4101 85.2C49.8801 86.1711 52.4003 87.0089 54.9601 87.71C73.1401 92.71 95.1801 91.92 111.84 85.62C114.166 84.7589 116.436 83.757 118.64 82.62C119.64 82.08 120.64 81.52 121.64 80.93C122.64 80.34 123.23 79.93 123.96 79.41L124.57 78.96C129.44 75.4 132.57 71.41 134.06 67.3C136.58 60.3 134.26 52.9 127.3 46.66C123.911 43.7083 120.103 41.2752 116 39.44Z" fill="#FBA528"/>
<path id="Vector_110" opacity="0.5" d="M116 39.44C115.26 39.1 114.51 38.76 113.73 38.44C91.7301 29.27 60.4601 30.34 40.9501 40.85L40.4301 41.14C39.7501 41.51 39.0901 41.89 38.4301 42.29C34.9115 44.3626 31.7923 47.0483 29.2201 50.22C24.0001 56.92 23.6901 64.39 28.0601 71.16C30.6401 75.16 34.8201 78.84 40.6001 82.01C41.6901 82.61 42.8301 83.19 44.0301 83.75C45.2301 84.31 46.2601 84.75 47.4101 85.2C49.8801 86.1711 52.4003 87.0089 54.9601 87.71C73.1401 92.71 95.1801 91.92 111.84 85.62C114.166 84.7589 116.436 83.757 118.64 82.62C119.64 82.08 120.64 81.52 121.64 80.93C122.64 80.34 123.23 79.93 123.96 79.41L124.57 78.96C129.44 75.4 132.57 71.41 134.06 67.3C136.58 60.3 134.26 52.9 127.3 46.66C123.911 43.7083 120.103 41.2752 116 39.44Z" fill="#FBA528"/>
<path id="Vector_111" d="M113.76 44.91C114.53 45.23 115.29 45.56 116.03 45.91C120.117 47.7394 123.911 50.1622 127.29 53.1C131.35 56.74 133.82 60.77 134.68 64.89C134.517 65.7014 134.297 66.5001 134.02 67.28C132.54 71.39 129.4 75.38 124.53 78.94L123.92 79.39C123.19 79.9 122.41 80.39 121.6 80.91C120.79 81.43 119.66 82.06 118.6 82.6C116.396 83.737 114.126 84.7389 111.8 85.6C95.1401 91.9 73.1001 92.71 54.9201 87.69C52.3604 86.9889 49.8401 86.151 47.3701 85.18C46.2201 84.72 45.1001 84.24 43.9901 83.73C42.8801 83.22 41.6501 82.59 40.5601 81.99C34.7801 78.82 30.5601 75.1 28.0201 71.14C26.74 69.2009 25.8312 67.0409 25.3401 64.7699C25.9772 61.8009 27.3028 59.023 29.2101 56.66C31.7851 53.491 34.9038 50.8057 38.4201 48.73C39.0601 48.33 39.7301 47.9499 40.4201 47.5799L40.9501 47.29C60.4901 36.81 91.7901 35.74 113.76 44.91Z" fill="#FBA528"/>
<path id="Vector_112" opacity="0.25" d="M113.76 44.91C114.53 45.23 115.29 45.56 116.03 45.91C120.117 47.7394 123.911 50.1622 127.29 53.1C131.35 56.74 133.82 60.77 134.68 64.89C134.517 65.7014 134.297 66.5001 134.02 67.28C132.54 71.39 129.4 75.38 124.53 78.94L123.92 79.39C123.19 79.9 122.41 80.39 121.6 80.91C120.79 81.43 119.66 82.06 118.6 82.6C116.396 83.737 114.126 84.7389 111.8 85.6C95.1401 91.9 73.1001 92.71 54.9201 87.69C52.3604 86.9889 49.8401 86.151 47.3701 85.18C46.2201 84.72 45.1001 84.24 43.9901 83.73C42.8801 83.22 41.6501 82.59 40.5601 81.99C34.7801 78.82 30.5601 75.1 28.0201 71.14C26.74 69.2009 25.8312 67.0409 25.3401 64.7699C25.9772 61.8009 27.3028 59.023 29.2101 56.66C31.7851 53.491 34.9038 50.8057 38.4201 48.73C39.0601 48.33 39.7301 47.9499 40.4201 47.5799L40.9501 47.29C60.4901 36.81 91.7901 35.74 113.76 44.91Z" fill="#FBA528"/>
<path id="Vector_113" d="M155.71 70C146.97 89.43 122.52 97.18 102.59 100.69C72.29 105.04 39.31 101.39 15.88 84.15H15.93C9.55999 79.15 4.13999 72.42 2.98999 64.28C3.98999 72.5 9.23001 79.46 15.6 84.6C34.47 99.22 60.6 103.96 85.6 103.26C110.75 101.77 144.29 95 155.71 70Z" fill="#F5F5F5"/>
<path id="Vector_114" d="M48.2601 75.92C56.8201 79.51 65.2101 77.92 73.0301 75.19L71.0001 77.3V86.19C72.7404 86.6039 74.5084 86.8913 76.2901 87.05C79.3626 87.3107 82.4553 87.1965 85.5001 86.71C90.4904 85.8856 95.3238 84.2969 99.8301 82L107.37 85.17L117.55 78.9V70L115.64 69.18L115.22 69.01C115.379 68.3284 115.449 67.6294 115.43 66.93C115.426 66.6955 115.406 66.4616 115.37 66.23C115.24 65.13 115.47 60.11 115.43 58.04C115.43 57.79 115.43 57.57 115.36 57.34C115.07 54.86 113 52.63 108.79 50.87C104.519 49.1471 99.8825 48.5314 95.3101 49.08L94.1701 49.22H94.0001L92.8001 49.42C92.4501 49.48 92.1101 49.54 91.8001 49.62C91.6501 49.62 91.5001 49.67 91.3701 49.71C91.2401 49.75 90.8201 49.81 90.5801 49.88C88.3801 50.4012 86.2102 51.0421 84.0801 51.8C83.1501 52.13 82.2201 52.48 81.3001 52.8L84.0001 50V41.11C75.3401 39.46 66.0801 40.86 57.0001 45.31L49.4601 42.17L39.3901 48.6V57.48L41.7501 58.48C41.59 59.0252 41.5158 59.5919 41.5301 60.16V60.22C41.6101 61.6 41.4701 67.48 41.5301 69.04V69.11C41.6501 71.74 43.8001 74.06 48.2601 75.92Z" fill="#FBA528"/>
<path id="Vector_115" opacity="0.15" d="M115.43 58.46C115.43 60.73 115.26 65.2 115.38 66.22C115.38 66.46 115.38 66.68 115.44 66.93C115.455 67.6298 115.381 68.3287 115.22 69.01L109.8 66.73C109.8 66.73 115.27 64.09 115.43 58.46Z" fill="#FBA528"/>
<path id="Vector_116" opacity="0.45" d="M60.7 58.32C58.44 57.37 58.07 55.61 62.23 52.93C66.68 50.1 71.23 49.37 75.17 50.34L83.99 41.15V50L81.32 52.8L81.05 52.91C79.6 53.46 78.2 54.03 76.87 54.59C76.32 54.83 75.79 55.05 75.27 55.25C72.4062 56.5936 69.4318 57.6876 66.38 58.52C65.1229 58.8586 63.812 58.9504 62.52 58.79C61.8953 58.714 61.2834 58.5559 60.7 58.32Z" fill="#FBA528"/>
<path id="Vector_117" opacity="0.2" d="M41.7001 58.48L39.3601 57.48V48.6L46.8701 51.75C44.0801 54.09 42.2901 56.36 41.7001 58.48Z" fill="#FBA528"/>
<path id="Vector_118" opacity="0.15" d="M107.36 76.25L117.55 70V78.89L107.35 85.17L99.8401 82C95.3277 84.3098 90.4829 85.9022 85.4801 86.72C80.662 87.5317 75.7293 87.3582 70.9801 86.21V77.3C75.7293 78.4481 80.662 78.6217 85.4801 77.81C90.484 76.9968 95.3295 75.4042 99.8401 73.09L107.36 76.25Z" fill="#FBA528"/>
<path id="Vector_119" opacity="0.2" d="M99.84 82C96.3147 84.1877 92.4479 85.7696 88.4 86.68C84.4249 87.6292 80.299 87.7652 76.27 87.08C80.3076 87.0281 84.329 86.559 88.27 85.68C90.27 85.25 92.17 84.68 94.11 84.08C96.05 83.48 97.91 82.71 99.84 82Z" fill="#FBA528"/>
<path id="Vector_120" opacity="0.35" d="M41.5101 69.1199V69.07C41.4501 67.51 41.5801 61.6299 41.5101 60.2399C41.6601 62.8599 43.7901 65.18 48.2501 67.04C58.1901 71.18 67.8601 68.46 76.7101 64.91C84.9201 61.59 90.8901 58.0499 95.7101 60.0499C98.7101 61.3199 97.8601 63.32 94.5801 65.41C92.4905 66.7307 90.1531 67.6106 87.7113 67.9957C85.2695 68.3809 82.7748 68.2633 80.3801 67.6499L73.0001 75.19C65.1601 77.96 56.7801 79.49 48.2401 75.92C43.7901 74.06 41.6601 71.7499 41.5101 69.1199Z" fill="#FBA528"/>
<path id="Vector_121" d="M75.18 59.23L75.17 50.34L83.98 41.14L83.99 50.03L75.18 59.23Z" fill="#FBA528"/>
<path id="Vector_122" opacity="0.15" d="M75.18 59.23L75.17 50.34L83.98 41.14L83.99 50.03L75.18 59.23Z" fill="#FBA528"/>
<path id="Vector_123" d="M39.3501 48.63L46.8901 51.77L41.7201 58.5L39.3601 57.51L39.3501 48.63Z" fill="#FBA528"/>
<path id="Vector_124" opacity="0.45" d="M39.3501 48.63L46.8901 51.77L41.7201 58.5L39.3601 57.51L39.3501 48.63Z" fill="#FBA528"/>
<path id="Vector_125" d="M115.64 69.1799L109.81 66.7299C109.81 66.7299 115.54 63.9499 115.43 58.0399C115.43 57.7899 115.43 57.5699 115.36 57.3399C115.07 54.8599 113 52.6299 108.79 50.8699C104.519 49.1471 99.8824 48.5314 95.31 49.0799L94.17 49.2199H94L92.8 49.42C92.45 49.48 92.11 49.5399 91.8 49.6199C91.65 49.6199 91.5 49.6699 91.37 49.7099C91.24 49.7499 90.82 49.8099 90.58 49.8799C88.38 50.4011 86.2101 51.0421 84.08 51.7999C83.08 52.1599 82.08 52.5399 81.08 52.9399C79.64 53.4999 78.22 54.08 76.88 54.64C76.34 54.88 75.81 55.0899 75.29 55.2999C72.4219 56.6331 69.4484 57.7269 66.4 58.5699C65.1449 58.9005 63.8382 58.9888 62.55 58.8299C61.9294 58.7387 61.3219 58.5742 60.74 58.3399C58.47 57.3899 58.08 55.6199 62.26 52.9399C66.71 50.0999 71.26 49.3699 75.2 50.3499L84.01 41.1499C75.35 39.4999 66.09 40.8999 57.01 45.3499L49.47 42.2099L39.4 48.64L46.94 51.7799C43.35 54.7799 41.45 57.6099 41.55 60.1899V60.2499C41.7 62.8699 43.84 65.1799 48.31 67.0499C58.22 71.1999 67.9 68.47 76.74 64.92C84.97 61.59 90.93 58.0599 95.74 60.0699C98.74 61.3399 97.87 63.3199 94.59 65.4299C92.4988 66.7468 90.1614 67.6245 87.7203 68.0096C85.2791 68.3947 82.7851 68.2791 80.39 67.67L71 77.2999C72.7426 77.7211 74.5142 78.0119 76.3 78.17C79.373 78.4216 82.465 78.3041 85.51 77.8199C90.5046 76.9945 95.3416 75.4024 99.85 73.0999L107.39 76.2599L117.55 69.9999L115.64 69.1799Z" fill="#FBA528"/>
<path id="Vector_126" opacity="0.1" d="M115.64 69.1799L109.81 66.7299C109.81 66.7299 115.54 63.9499 115.43 58.0399C115.43 57.7899 115.43 57.5699 115.36 57.3399C115.07 54.8599 113 52.6299 108.79 50.8699C104.519 49.1471 99.8824 48.5314 95.31 49.0799L94.17 49.2199H94L92.8 49.42C92.45 49.48 92.11 49.5399 91.8 49.6199C91.65 49.6199 91.5 49.6699 91.37 49.7099C91.24 49.7499 90.82 49.8099 90.58 49.8799C88.38 50.4011 86.2101 51.0421 84.08 51.7999C83.08 52.1599 82.08 52.5399 81.08 52.9399C79.64 53.4999 78.22 54.08 76.88 54.64C76.34 54.88 75.81 55.0899 75.29 55.2999C72.4219 56.6331 69.4484 57.7269 66.4 58.5699C65.1449 58.9005 63.8382 58.9888 62.55 58.8299C61.9294 58.7387 61.3219 58.5742 60.74 58.3399C58.47 57.3899 58.08 55.6199 62.26 52.9399C66.71 50.0999 71.26 49.3699 75.2 50.3499L84.01 41.1499C75.35 39.4999 66.09 40.8999 57.01 45.3499L49.47 42.2099L39.4 48.64L46.94 51.7799C43.35 54.7799 41.45 57.6099 41.55 60.1899V60.2499C41.7 62.8699 43.84 65.1799 48.31 67.0499C58.22 71.1999 67.9 68.47 76.74 64.92C84.97 61.59 90.93 58.0599 95.74 60.0699C98.74 61.3399 97.87 63.3199 94.59 65.4299C92.4988 66.7468 90.1614 67.6245 87.7203 68.0096C85.2791 68.3947 82.7851 68.2791 80.39 67.67L71 77.2999C72.7426 77.7211 74.5142 78.0119 76.3 78.17C79.373 78.4216 82.465 78.3041 85.51 77.8199C90.5046 76.9945 95.3416 75.4024 99.85 73.0999L107.39 76.2599L117.55 69.9999L115.64 69.1799Z" fill="white"/>
<path id="Vector_127" d="M48.26 67C52.0194 68.4384 56.0415 69.0622 60.06 68.83C64.1778 68.5594 68.2356 67.7007 72.11 66.28C76.05 64.98 79.84 63.28 83.71 61.66C85.653 60.8333 87.6595 60.1644 89.71 59.66C91.6978 59.1507 93.7949 59.2731 95.71 60.01C93.7671 59.3593 91.6695 59.3313 89.71 59.93C87.7088 60.4823 85.753 61.1877 83.86 62.04C80.05 63.71 76.23 65.45 72.26 66.8C68.3202 68.2391 64.1884 69.085 60 69.31C57.9561 69.3739 55.9112 69.2197 53.9 68.85C51.962 68.4267 50.0722 67.8068 48.26 67Z" fill="white"/>
<path id="Vector_128" d="M107.36 76.26L107.37 85.15L99.83 81.98L99.8201 73.1L107.36 76.26Z" fill="#FBA528"/>
<path id="Vector_129" opacity="0.35" d="M107.36 76.26L107.37 85.15L99.83 81.98L99.8201 73.1L107.36 76.26Z" fill="#FBA528"/>
<path id="Vector_130" d="M117.55 70L107.4 75.27L99.8201 73.1L107.36 76.26L117.55 70Z" fill="#FAFAFA"/>
<path id="Vector_131" d="M56.9601 45.3399L49.4601 43.1199L39.3501 48.6299L49.4201 42.2L56.9601 45.3399Z" fill="#FAFAFA"/>
<path id="Vector_132" opacity="0.15" d="M84 41.14C82.4361 40.8581 80.8565 40.671 79.27 40.58L80.5 44.8L84 41.14Z" fill="white"/>
<path id="Vector_133" opacity="0.15" d="M48.6001 67.17C52.7236 68.8149 57.1834 69.4392 61.6001 68.99L54.33 44.24L49.4301 42.24L42.5701 46.62L43.7001 50.47L46.9001 51.81C46.1285 52.437 45.3908 53.1046 44.6901 53.81L48.6001 67.17Z" fill="white"/>
<path id="Vector_134" opacity="0.15" d="M107.26 50.28C104.843 49.4628 102.32 49.0013 99.77 48.91L107.77 76.03L113.77 72.34L112.44 67.82L109.84 66.73C110.517 66.3668 111.157 65.9381 111.75 65.45L107.26 50.28Z" fill="white"/>
<path id="Vector_135" opacity="0.15" d="M94.0001 49.21L92.8 49.41C92.45 49.47 92.1 49.53 91.8 49.61C91.65 49.61 91.5001 49.66 91.3701 49.7C91.2401 49.74 90.82 49.8 90.58 49.87C88.38 50.3912 86.2101 51.0321 84.08 51.79C83.61 51.95 83.1501 52.14 82.6901 52.31L85.3201 61.31C89.3801 59.71 92.7501 58.86 95.7001 60.09C98.6501 61.32 97.83 63.34 94.55 65.45C92.3574 66.8405 89.8856 67.7315 87.3101 68.06L89.9001 76.9C93.3272 75.9868 96.6514 74.7235 99.8201 73.13L102.67 74.32L95.2601 49.1L94.1701 49.23L94.0001 49.21Z" fill="white"/>
</g>
<g id="freepik--coin--inject-8_4">
<path id="Vector_136" d="M168.13 41.68H176.6V59C176.6 61.0812 176.321 63.153 175.77 65.16C175.57 65.86 175.33 66.56 175.07 67.26C173.696 70.7488 171.693 73.9553 169.16 76.72C168.211 77.7695 167.21 78.7707 166.16 79.72C165.043 80.7512 163.875 81.7258 162.66 82.64C161.022 83.8849 159.32 85.0431 157.56 86.1099C155.64 87.2799 153.64 88.3699 151.56 89.3999C149.98 90.1699 148.36 90.8999 146.68 91.59C122.16 101.72 88.3501 102.95 61.3701 94.73C59.5301 94.17 57.7301 93.5666 55.9701 92.92C53.4401 92 50.9701 90.9799 48.6201 89.8699C46.6801 88.9566 44.8467 88.0133 43.1201 87.04C41.6201 86.18 40.2101 85.31 38.8701 84.3999C37.5301 83.4899 36.2901 82.58 35.1201 81.64C31.889 79.1035 29.0603 76.0928 26.7301 72.7099C26.2901 72.04 25.8601 71.36 25.4801 70.7099C23.8597 67.9013 22.8033 64.8034 22.3701 61.59C22.2503 60.6246 22.1902 59.6527 22.1901 58.68V42.25H29.9401C30.5601 41.57 31.2101 40.9 31.9401 40.25C34.7864 37.5642 37.9145 35.1938 41.2701 33.1799C43.4294 31.8651 45.6558 30.6634 47.9401 29.5799C51.0069 28.1166 54.1554 26.8312 57.3701 25.73C79.5501 18.06 107.79 17.0299 131.79 22.9899C135.297 23.8554 138.758 24.8967 142.16 26.1099C144.95 27.1099 147.65 28.21 150.24 29.42C153.953 31.1354 157.509 33.1697 160.87 35.5C163.485 37.3191 165.917 39.3889 168.13 41.68Z" fill="#FBA528"/>
<path id="Vector_137" opacity="0.15" d="M78 98.47V63.29L90.88 64.64V99.86C86.51 99.59 82.2 99.13 78 98.47Z" fill="white"/>
<path id="Vector_138" opacity="0.1" d="M176.6 59C176.6 61.0812 176.321 63.1531 175.77 65.16C175.57 65.86 175.33 66.56 175.07 67.26C173.696 70.7488 171.693 73.9554 169.16 76.72C168.82 77.09 168.46 77.47 168.1 77.84V41.64L168.16 41.7H176.63L176.6 59Z" fill="#FBA528"/>
<path id="Vector_139" opacity="0.15" d="M133.65 42.81L140.26 41.25V93.97C138.15 94.67 135.99 95.3 133.79 95.88L133.65 42.81Z" fill="white"/>
<path id="Vector_140" opacity="0.15" d="M116.6 99.12V53.42L129.47 54.37V96.92C125.22 97.8692 120.924 98.6034 116.6 99.12Z" fill="white"/>
<path id="Vector_141" opacity="0.15" d="M22.16 42.25H29.91C30.53 41.57 31.18 40.9 31.91 40.25C34.7564 37.5642 37.8845 35.1938 41.24 33.18C43.3994 31.8651 45.6258 30.6635 47.91 29.58C50.9768 28.1166 54.1254 26.8312 57.34 25.73C60.44 24.66 63.67 23.73 66.98 22.92L67.04 96.31C65.14 95.84 63.25 95.31 61.4 94.76C59.55 94.21 57.76 93.6 56 92.95C53.47 92.03 51 91.01 48.65 89.9C46.71 88.9866 44.8767 88.0433 43.15 87.07C41.65 86.21 40.24 85.34 38.9 84.43C37.56 83.52 36.32 82.61 35.15 81.67C31.9189 79.1335 29.0903 76.1228 26.76 72.74C26.32 72.07 25.89 71.39 25.51 70.74C23.8897 67.9313 22.8332 64.8334 22.4 61.62C22.2803 60.6546 22.2202 59.6827 22.22 58.71L22.16 42.25Z" fill="white"/>
<path id="Vector_142" opacity="0.15" d="M26.71 72.7C26.27 72.03 25.84 71.35 25.46 70.7C23.8397 67.8914 22.7833 64.7934 22.35 61.58C22.2303 60.6146 22.1702 59.6428 22.17 58.67V42.25H29.92L30.01 42.15L32.63 43.09V79.55C30.3947 77.5069 28.4077 75.2077 26.71 72.7Z" fill="white"/>
<path id="Vector_143" d="M150.16 10.84C147.57 9.62996 144.87 8.51996 142.08 7.52996C138.74 6.33996 135.27 5.28997 131.71 4.40997C107.71 -1.59003 79.47 -0.520041 57.29 7.14996C54.0754 8.25115 50.9268 9.53662 47.86 11C45.5757 12.0835 43.3494 13.2851 41.19 14.6C37.8345 16.6138 34.7064 18.9842 31.86 21.67C29.0955 24.247 26.7774 27.2646 25 30.6C22.6781 34.8507 21.7511 39.7236 22.35 44.53C22.7844 47.7417 23.8371 50.8388 25.45 53.65C25.84 54.33 26.26 55.01 26.71 55.65C29.0315 59.0398 31.8613 62.0518 35.1 64.58C36.28 65.5266 37.5333 66.45 38.86 67.35C40.2 68.25 41.61 69.13 43.11 69.98C44.83 70.98 46.67 71.91 48.6 72.82C50.96 73.92 53.42 74.94 55.95 75.82C57.71 76.4866 59.5133 77.09 61.36 77.63C88.36 85.86 122.14 84.63 146.67 74.49C148.34 73.8 149.97 73.07 151.54 72.3C153.64 71.28 155.64 70.1833 157.54 69.01C159.295 67.9408 160.994 66.7827 162.63 65.54C163.89 64.59 165.06 63.61 166.14 62.62C167.195 61.6761 168.196 60.6746 169.14 59.62C171.675 56.8569 173.678 53.6499 175.05 50.16C175.32 49.46 175.55 48.76 175.75 48.06C176.595 45.0496 176.81 41.8971 176.38 38.8C175.561 33.7629 173.355 29.0536 170.01 25.2C167.326 22.018 164.224 19.2126 160.79 16.86C157.427 14.5504 153.87 12.5362 150.16 10.84Z" fill="#FBA528"/>
<path id="Vector_144" opacity="0.1" d="M150.16 10.84C147.57 9.62996 144.87 8.51996 142.08 7.52996C138.74 6.33996 135.27 5.28997 131.71 4.40997C107.71 -1.59003 79.47 -0.520041 57.29 7.14996C54.0754 8.25115 50.9268 9.53662 47.86 11C45.5757 12.0835 43.3494 13.2851 41.19 14.6C37.8345 16.6138 34.7064 18.9842 31.86 21.67C29.0955 24.247 26.7774 27.2646 25 30.6C22.6781 34.8507 21.7511 39.7236 22.35 44.53C22.7844 47.7417 23.8371 50.8388 25.45 53.65C25.84 54.33 26.26 55.01 26.71 55.65C29.0315 59.0398 31.8613 62.0518 35.1 64.58C36.28 65.5266 37.5333 66.45 38.86 67.35C40.2 68.25 41.61 69.13 43.11 69.98C44.83 70.98 46.67 71.91 48.6 72.82C50.96 73.92 53.42 74.94 55.95 75.82C57.71 76.4866 59.5133 77.09 61.36 77.63C88.36 85.86 122.14 84.63 146.67 74.49C148.34 73.8 149.97 73.07 151.54 72.3C153.64 71.28 155.64 70.1833 157.54 69.01C159.295 67.9408 160.994 66.7827 162.63 65.54C163.89 64.59 165.06 63.61 166.14 62.62C167.195 61.6761 168.196 60.6746 169.14 59.62C171.675 56.8569 173.678 53.6499 175.05 50.16C175.32 49.46 175.55 48.76 175.75 48.06C176.595 45.0496 176.81 41.8971 176.38 38.8C175.561 33.7629 173.355 29.0536 170.01 25.2C167.326 22.018 164.224 19.2126 160.79 16.86C157.427 14.5504 153.87 12.5362 150.16 10.84Z" fill="white"/>
<path id="Vector_145" opacity="0.2" d="M150.16 10.84C147.57 9.62996 144.87 8.51996 142.08 7.52996C138.74 6.33996 135.27 5.28997 131.71 4.40997C107.71 -1.59003 79.47 -0.520041 57.29 7.14996C54.0754 8.25115 50.9268 9.53662 47.86 11C45.5757 12.0835 43.3494 13.2851 41.19 14.6C37.8345 16.6138 34.7064 18.9842 31.86 21.67C29.0955 24.247 26.7774 27.2646 25 30.6C22.6781 34.8507 21.7511 39.7236 22.35 44.53C22.7844 47.7417 23.8371 50.8388 25.45 53.65C25.84 54.33 26.26 55.01 26.71 55.65C29.0315 59.0398 31.8613 62.0518 35.1 64.58C36.28 65.5266 37.5333 66.45 38.86 67.35C40.2 68.25 41.61 69.13 43.11 69.98C44.83 70.98 46.67 71.91 48.6 72.82C50.96 73.92 53.42 74.94 55.95 75.82C57.71 76.4866 59.5133 77.09 61.36 77.63C88.36 85.86 122.14 84.63 146.67 74.49C148.34 73.8 149.97 73.07 151.54 72.3C153.64 71.28 155.64 70.1833 157.54 69.01C159.295 67.9408 160.994 66.7827 162.63 65.54C163.89 64.59 165.06 63.61 166.14 62.62C167.195 61.6761 168.196 60.6746 169.14 59.62C171.675 56.8569 173.678 53.6499 175.05 50.16C175.32 49.46 175.55 48.76 175.75 48.06C176.595 45.0496 176.81 41.8971 176.38 38.8C175.561 33.7629 173.355 29.0536 170.01 25.2C167.326 22.018 164.224 19.2126 160.79 16.86C157.427 14.5504 153.87 12.5362 150.16 10.84Z" fill="white"/>
<path id="Vector_146" opacity="0.15" d="M67.0001 79.27C65.0801 78.79 63.1801 78.27 61.3201 77.7C59.4601 77.13 57.6701 76.54 55.9101 75.89C53.3801 74.97 50.9101 73.95 48.5601 72.89C46.6301 71.98 44.7901 71.03 43.0701 70.05C41.5701 69.2 40.1601 68.32 38.8201 67.42C37.4801 66.52 36.2401 65.6 35.0601 64.65C31.8214 62.1219 28.9915 59.1099 26.6701 55.72C26.2201 55.05 25.8001 54.37 25.4101 53.72C23.7972 50.9089 22.7444 47.8117 22.3101 44.6C21.7083 39.7664 22.6498 34.8664 25.0001 30.6C26.7805 27.2639 29.102 24.2463 31.8701 21.67C34.7164 18.9843 37.8446 16.6138 41.2001 14.6C43.0801 13.45 45.06 12.39 47.11 11.38L67.0001 79.27Z" fill="white"/>
<path id="Vector_147" opacity="0.15" d="M32.5301 62.41C30.3307 60.4019 28.3741 58.1432 26.7001 55.68C26.2501 55.01 25.8301 54.33 25.4401 53.68C23.8272 50.8688 22.7744 47.7717 22.3401 44.56C21.8424 40.6366 22.3802 36.6512 23.9001 33L32.5301 62.41Z" fill="white"/>
<path id="Vector_148" opacity="0.15" d="M90.8 82.84C86.47 82.58 82.17 82.12 77.94 81.46L56.24 7.52997L57.29 7.14996C60.7073 5.97551 64.1818 4.97424 67.7 4.14996L90.8 82.84Z" fill="white"/>
<path id="Vector_149" opacity="0.15" d="M129.46 79.91C125.21 80.8602 120.915 81.5911 116.59 82.1L92.6901 0.730014C97.1901 0.530014 101.69 0.540014 106.23 0.730014L129.46 79.91Z" fill="white"/>
<path id="Vector_150" opacity="0.15" d="M140.23 76.9399C138.11 77.6399 135.94 78.2899 133.72 78.8699L110.87 1.06995C113.33 1.26995 115.77 1.51995 118.19 1.84995L140.23 76.9399Z" fill="white"/>
<path id="Vector_151" opacity="0.3" d="M154 12.77C155 13.31 156 13.87 156.93 14.43L157.87 14.99L158.81 15.59C159.49 16.03 160.17 16.47 160.81 16.92C164.244 19.2727 167.346 22.078 170.03 25.26C173.375 29.1136 175.581 33.8229 176.4 38.86C176.83 41.9571 176.615 45.1096 175.77 48.12C175.57 48.82 175.34 49.52 175.07 50.22C173.698 53.7099 171.695 56.9169 169.16 59.68C168.83 60.06 168.46 60.43 168.1 60.81L154 12.77Z" fill="#FBA528"/>
<path id="Vector_152" d="M137 18.6499C114 7.94994 79.5801 8.74995 58.4601 20.13C57.5701 20.62 56.6801 21.13 55.8301 21.64C35.0401 34.45 37.6601 53.8699 61.6901 65.0299C85.7201 76.1899 122.07 74.8499 142.86 62.0299C143.71 61.5099 144.52 60.9699 145.29 60.4299C163.44 47.6599 160.08 29.3499 137 18.6499Z" fill="#FBA528"/>
<path id="Vector_153" opacity="0.4" d="M137 18.6499C114 7.94994 79.5801 8.74995 58.4601 20.13C57.5701 20.62 56.6801 21.13 55.8301 21.64C35.0401 34.45 37.6601 53.8699 61.6901 65.0299C85.7201 76.1899 122.07 74.8499 142.86 62.0299C143.71 61.5099 144.52 60.9699 145.29 60.4299C163.44 47.6599 160.08 29.3499 137 18.6499Z" fill="#FBA528"/>
<path id="Vector_154" d="M135.35 19.68C134.61 19.34 133.85 19 133.08 18.68C111.08 9.51001 79.81 10.58 60.3 21.09L59.77 21.38C59.1 21.75 58.43 22.13 57.77 22.53C54.2515 24.6026 51.1323 27.2883 48.56 30.46C43.34 37.16 43.02 44.63 47.4 51.4C49.97 55.4 54.1601 59.08 59.9401 62.25C61.0201 62.85 62.16 63.43 63.37 63.99C64.58 64.55 65.59 64.99 66.75 65.44C69.2166 66.4111 71.7336 67.249 74.2901 67.95C92.4801 72.95 114.52 72.16 131.18 65.86C133.502 64.9989 135.77 63.9971 137.97 62.86C138.97 62.32 139.97 61.76 140.97 61.17C141.97 60.58 142.55 60.17 143.29 59.65L143.9 59.2C148.76 55.64 151.9 51.65 153.39 47.54C155.91 40.54 153.59 33.14 146.63 26.9C143.247 23.95 139.446 21.517 135.35 19.68Z" fill="#FBA528"/>
<path id="Vector_155" opacity="0.5" d="M135.35 19.68C134.61 19.34 133.85 19 133.08 18.68C111.08 9.51001 79.81 10.58 60.3 21.09L59.77 21.38C59.1 21.75 58.43 22.13 57.77 22.53C54.2515 24.6026 51.1323 27.2883 48.56 30.46C43.34 37.16 43.02 44.63 47.4 51.4C49.97 55.4 54.1601 59.08 59.9401 62.25C61.0201 62.85 62.16 63.43 63.37 63.99C64.58 64.55 65.59 64.99 66.75 65.44C69.2166 66.4111 71.7336 67.249 74.2901 67.95C92.4801 72.95 114.52 72.16 131.18 65.86C133.502 64.9989 135.77 63.9971 137.97 62.86C138.97 62.32 139.97 61.76 140.97 61.17C141.97 60.58 142.55 60.17 143.29 59.65L143.9 59.2C148.76 55.64 151.9 51.65 153.39 47.54C155.91 40.54 153.59 33.14 146.63 26.9C143.247 23.95 139.446 21.517 135.35 19.68Z" fill="#FBA528"/>
<path id="Vector_156" d="M133.1 25.15C133.88 25.47 134.63 25.8 135.37 26.15C139.459 27.9746 143.254 30.3978 146.63 33.34C150.7 36.98 153.17 41.01 154.03 45.13C153.867 45.9414 153.647 46.7401 153.37 47.52C151.89 51.63 148.74 55.62 143.88 59.18L143.27 59.63C142.53 60.14 141.76 60.63 140.95 61.15C140.14 61.67 139.01 62.3 137.95 62.84C135.75 63.977 133.482 64.9789 131.16 65.84C114.5 72.14 92.4601 72.95 74.2701 67.93C71.7136 67.229 69.1966 66.3911 66.7301 65.42C65.5701 64.96 64.4501 64.48 63.3501 63.97C62.2501 63.46 61.0001 62.83 59.9201 62.23C54.1401 59.06 49.9201 55.34 47.3801 51.38C46.1013 49.4391 45.1896 47.28 44.6901 45.01C45.3356 42.0438 46.6603 39.2677 48.5601 36.9C51.1398 33.7356 54.2576 31.0511 57.7701 28.97C58.42 28.57 59.0801 28.19 59.7701 27.82L60.3 27.53C79.83 17.05 111.14 16 133.1 25.15Z" fill="#FBA528"/>
<path id="Vector_157" opacity="0.25" d="M133.1 25.15C133.88 25.47 134.63 25.8 135.37 26.15C139.459 27.9746 143.254 30.3978 146.63 33.34C150.7 36.98 153.17 41.01 154.03 45.13C153.867 45.9414 153.647 46.7401 153.37 47.52C151.89 51.63 148.74 55.62 143.88 59.18L143.27 59.63C142.53 60.14 141.76 60.63 140.95 61.15C140.14 61.67 139.01 62.3 137.95 62.84C135.75 63.977 133.482 64.9789 131.16 65.84C114.5 72.14 92.4601 72.95 74.2701 67.93C71.7136 67.229 69.1966 66.3911 66.7301 65.42C65.5701 64.96 64.4501 64.48 63.3501 63.97C62.2501 63.46 61.0001 62.83 59.9201 62.23C54.1401 59.06 49.9201 55.34 47.3801 51.38C46.1013 49.4391 45.1896 47.28 44.6901 45.01C45.3356 42.0438 46.6603 39.2677 48.5601 36.9C51.1398 33.7356 54.2576 31.0511 57.7701 28.97C58.42 28.57 59.0801 28.19 59.7701 27.82L60.3 27.53C79.83 17.05 111.14 16 133.1 25.15Z" fill="#FBA528"/>
<path id="Vector_158" d="M175.05 50.22C166.32 69.66 141.87 77.4 121.94 80.91C91.64 85.26 58.66 81.61 35.23 64.37C28.86 59.37 23.43 52.64 22.29 44.5C23.29 52.72 28.53 59.68 34.9 64.82C53.77 79.44 79.9 84.18 104.9 83.48C130.09 82 163.63 75.24 175.05 50.22Z" fill="white"/>
<path id="Vector_159" d="M67.61 56.16C76.17 59.75 84.56 58.16 92.38 55.43L90.32 57.54V66.43C92.0603 66.8439 93.8282 67.1313 95.61 67.29C98.6825 67.55 101.775 67.4358 104.82 66.95C109.815 66.1228 114.653 64.5272 119.16 62.22L126.71 65.39L136.89 59.12V50.24L134.98 49.42L134.57 49.25C134.728 48.5685 134.799 47.8695 134.78 47.17C134.776 46.9356 134.756 46.7017 134.72 46.47C134.59 45.37 134.81 40.35 134.72 38.28C134.716 38.0456 134.696 37.8117 134.66 37.58C134.36 35.1 132.3 32.87 128.08 31.11C123.813 29.3871 119.179 28.7714 114.61 29.32L113.46 29.46H113.34L112.14 29.65C111.79 29.71 111.44 29.77 111.09 29.85C110.94 29.85 110.79 29.85 110.67 29.94C110.4 29.99 110.12 30.04 109.87 30.11C107.674 30.6326 105.507 31.2735 103.38 32.03C102.44 32.36 101.51 32.71 100.6 33.03L103.28 30.23V21.34C94.61 19.69 85.36 21.09 76.28 25.54L68.73 22.4L58.67 28.83V37.71L61.03 38.71C60.8668 39.2547 60.7892 39.8215 60.8 40.39V40.45C60.88 41.83 60.8 47.71 60.8 49.27V49.34C61 52 63.15 54.3 67.61 56.16Z" fill="#FBA528"/>
<path id="Vector_160" opacity="0.15" d="M134.77 38.7C134.77 40.97 134.61 45.4399 134.77 46.4599C134.77 46.6999 134.77 46.93 134.84 47.17C134.855 47.8698 134.781 48.5687 134.62 49.2499L129.15 46.9999C129.15 46.9999 134.62 44.33 134.77 38.7Z" fill="#FBA528"/>
<path id="Vector_161" opacity="0.45" d="M80.05 38.56C77.78 37.61 77.4101 35.85 81.5701 33.17C86.0301 30.34 90.62 29.61 94.52 30.58L103.34 21.39V30.27L100.68 33.07C100.58 33.07 100.51 33.14 100.41 33.18C98.9601 33.73 97.5601 34.3 96.2201 34.86C95.68 35.1 95.1501 35.32 94.6301 35.52C91.7623 36.8624 88.7848 37.9564 85.7301 38.79C84.4764 39.1292 83.1687 39.2208 81.8801 39.06C81.2502 38.9771 80.6345 38.8089 80.05 38.56Z" fill="#FBA528"/>
<path id="Vector_162" opacity="0.2" d="M61.05 38.72L58.7001 37.72V28.84L66.2101 31.99C63.4301 34.33 61.64 36.6 61.05 38.72Z" fill="#FBA528"/>
<path id="Vector_163" opacity="0.15" d="M126.71 56.49L136.9 50.23V59.12L126.7 65.4L119.18 62.22C114.668 64.5297 109.823 66.1222 104.82 66.94C100.002 67.7516 95.0693 67.5781 90.3201 66.43V57.54C95.0693 58.6881 100.002 58.8616 104.82 58.05C109.824 57.2368 114.669 55.6441 119.18 53.33L126.71 56.49Z" fill="#FBA528"/>
<path id="Vector_164" opacity="0.2" d="M119.19 62.22C115.665 64.4077 111.798 65.9896 107.75 66.9C103.775 67.8492 99.6491 67.9852 95.6201 67.3C99.641 67.2453 103.646 66.7762 107.57 65.9C109.57 65.47 111.48 64.9 113.42 64.3C115.36 63.7 117.26 63 119.19 62.22Z" fill="#FBA528"/>
<path id="Vector_165" opacity="0.35" d="M60.85 49.3599V49.3099C60.78 47.7499 60.92 41.8699 60.85 40.4799C61.01 43.0999 63.13 45.4199 67.6 47.2799C77.54 51.4199 87.21 48.6999 96.06 45.1499C104.27 41.8299 110.24 38.2899 115.06 40.2899C118.06 41.5599 117.21 43.5599 113.93 45.6499C111.839 46.9709 109.5 47.8509 107.056 48.2361C104.613 48.6213 102.116 48.5035 99.72 47.8899L92.41 55.4299C84.58 58.1999 76.2 59.7299 67.66 56.1599C63.13 54.2999 61 51.9999 60.85 49.3599Z" fill="#FBA528"/>
<path id="Vector_166" d="M94.52 39.47V30.58L103.33 21.38V30.27L94.52 39.47Z" fill="#FBA528"/>
<path id="Vector_167" opacity="0.15" d="M94.52 39.47V30.58L103.33 21.38V30.27L94.52 39.47Z" fill="#FBA528"/>
<path id="Vector_168" d="M58.7001 28.87L66.2401 32.01L61.0701 38.74L58.7101 37.75L58.7001 28.87Z" fill="#FBA528"/>
<path id="Vector_169" opacity="0.45" d="M58.7001 28.87L66.2401 32.01L61.0701 38.74L58.7101 37.75L58.7001 28.87Z" fill="#FBA528"/>
<path id="Vector_170" d="M135 49.42L129.16 46.9999C129.16 46.9999 134.89 44.2199 134.77 38.3099C134.766 38.0755 134.746 37.8416 134.71 37.6099C134.41 35.1299 132.35 32.9 128.13 31.14C123.863 29.4171 119.229 28.8013 114.66 29.35L113.51 29.4899H113.39L112.19 29.6799C111.84 29.7399 111.49 29.8 111.14 29.88C110.99 29.88 110.84 29.8799 110.72 29.9699C110.45 30.0199 110.17 30.07 109.92 30.14C107.724 30.6625 105.557 31.3035 103.43 32.0599C102.43 32.4199 101.43 32.8 100.43 33.2C98.98 33.76 97.57 34.3399 96.23 34.8999C95.68 35.1399 95.16 35.3499 94.64 35.5599C91.7686 36.8935 88.7917 37.9872 85.74 38.8299C84.485 39.1613 83.1782 39.2495 81.89 39.0899C81.2697 38.9974 80.6623 38.833 80.08 38.6C77.81 37.65 77.43 35.88 81.61 33.2C86.06 30.36 90.61 29.6299 94.55 30.6099L103.36 21.4099C94.69 19.7599 85.44 21.1599 76.36 25.6099L68.81 22.4699L58.75 28.8999L66.29 32.04C62.69 35.04 60.8 37.87 60.89 40.45V40.51C61.04 43.13 63.19 45.4399 67.65 47.3099C77.57 51.4599 87.25 48.7299 96.09 45.1799C104.31 41.8499 110.28 38.3199 115.09 40.3299C118.09 41.5999 117.23 43.5799 113.94 45.6899C111.851 47.0071 109.515 47.885 107.076 48.2701C104.636 48.6552 102.143 48.5395 99.75 47.9299L90.37 57.57C92.1093 57.991 93.8775 58.2818 95.66 58.4399C98.733 58.692 101.825 58.5745 104.87 58.0899C109.868 57.2645 114.708 55.6725 119.22 53.3699L126.76 56.5299L136.94 50.2699L135 49.42Z" fill="#FBA528"/>
<path id="Vector_171" opacity="0.1" d="M135 49.42L129.16 46.9999C129.16 46.9999 134.89 44.2199 134.77 38.3099C134.766 38.0755 134.746 37.8416 134.71 37.6099C134.41 35.1299 132.35 32.9 128.13 31.14C123.863 29.4171 119.229 28.8013 114.66 29.35L113.51 29.4899H113.39L112.19 29.6799C111.84 29.7399 111.49 29.8 111.14 29.88C110.99 29.88 110.84 29.8799 110.72 29.9699C110.45 30.0199 110.17 30.07 109.92 30.14C107.724 30.6625 105.557 31.3035 103.43 32.0599C102.43 32.4199 101.43 32.8 100.43 33.2C98.98 33.76 97.57 34.3399 96.23 34.8999C95.68 35.1399 95.16 35.3499 94.64 35.5599C91.7686 36.8935 88.7917 37.9872 85.74 38.8299C84.485 39.1613 83.1782 39.2495 81.89 39.0899C81.2697 38.9974 80.6623 38.833 80.08 38.6C77.81 37.65 77.43 35.88 81.61 33.2C86.06 30.36 90.61 29.6299 94.55 30.6099L103.36 21.4099C94.69 19.7599 85.44 21.1599 76.36 25.6099L68.81 22.4699L58.75 28.8999L66.29 32.04C62.69 35.04 60.8 37.87 60.89 40.45V40.51C61.04 43.13 63.19 45.4399 67.65 47.3099C77.57 51.4599 87.25 48.7299 96.09 45.1799C104.31 41.8499 110.28 38.3199 115.09 40.3299C118.09 41.5999 117.23 43.5799 113.94 45.6899C111.851 47.0071 109.515 47.885 107.076 48.2701C104.636 48.6552 102.143 48.5395 99.75 47.9299L90.37 57.57C92.1093 57.991 93.8775 58.2818 95.66 58.4399C98.733 58.692 101.825 58.5745 104.87 58.0899C109.868 57.2645 114.708 55.6725 119.22 53.3699L126.76 56.5299L136.94 50.2699L135 49.42Z" fill="white"/>
<path id="Vector_172" d="M67.6001 47.28C71.363 48.7184 75.3883 49.3421 79.4101 49.11C83.5112 48.8366 87.5522 47.9779 91.4101 46.56C95.3601 45.26 99.1501 43.56 103.02 41.94C104.963 41.112 106.969 40.4431 109.02 39.94C111.008 39.428 113.106 39.5504 115.02 40.29C113.078 39.6366 110.979 39.6086 109.02 40.21C107.018 40.7607 105.063 41.4662 103.17 42.32C99.3501 43.99 95.5301 45.73 91.5701 47.08C87.6369 48.4982 83.5157 49.3272 79.3401 49.54C77.2929 49.6035 75.2447 49.4493 73.2301 49.08C71.2977 48.6707 69.4115 48.0676 67.6001 47.28Z" fill="white"/>
<path id="Vector_173" d="M126.71 56.5V65.39L119.17 62.22V53.34L126.71 56.5Z" fill="#FBA528"/>
<path id="Vector_174" opacity="0.35" d="M126.71 56.5V65.39L119.17 62.22V53.34L126.71 56.5Z" fill="#FBA528"/>
<path id="Vector_175" d="M136.89 50.24L126.75 55.51L119.17 53.34L126.71 56.5L136.89 50.24Z" fill="white"/>
<path id="Vector_176" d="M76.3101 25.5799L68.8101 23.3599L58.7001 28.8699L68.7601 22.4399L76.3101 25.5799Z" fill="white"/>
<path id="Vector_177" opacity="0.15" d="M103.33 21.3799C101.763 21.0974 100.18 20.9104 98.5901 20.8199L99.8301 25.0399L103.33 21.3799Z" fill="white"/>
<path id="Vector_178" opacity="0.15" d="M68.0001 47.41C72.1236 49.0548 76.5834 49.6792 81.0001 49.23L73.7301 24.48L68.8201 22.48L61.9601 26.86L63.0901 30.71L66.3001 32.05C65.5263 32.6745 64.7885 33.3422 64.0901 34.05L68.0001 47.41Z" fill="white"/>
<path id="Vector_179" opacity="0.15" d="M126.61 30.52C124.193 29.7036 121.67 29.2422 119.12 29.15L127.12 56.27L133.12 52.58L131.8 48.06L129.2 46.97C129.877 46.6125 130.514 46.1833 131.1 45.69L126.61 30.52Z" fill="white"/>
<path id="Vector_180" opacity="0.15" d="M113.39 29.46L112.19 29.65C111.84 29.71 111.49 29.77 111.14 29.85C110.99 29.85 110.84 29.85 110.72 29.94C110.45 29.99 110.17 30.04 109.92 30.11C107.724 30.6325 105.557 31.2735 103.43 32.03C102.96 32.19 102.5 32.38 102.04 32.55L104.67 41.55C108.72 39.95 112.1 39.1 115.04 40.33C117.98 41.56 117.18 43.58 113.89 45.69C111.699 47.0837 109.226 47.975 106.65 48.3L109.25 57.14C112.677 56.2249 116.001 54.9616 119.17 53.37L122.01 54.56L114.61 29.34L113.51 29.47L113.39 29.46Z" fill="white"/>
</g>
<path id="Vector_181" d="M31.8102 119.6L33.0402 110.28L34.2701 119.6L50.4102 120.31L34.2701 121.02L33.0402 130.34L31.8102 121.02L15.6702 120.31L31.8102 119.6Z" fill="white"/>
<path id="Vector_182" d="M43.85 127.59L44.45 123.08L45.04 127.59L52.87 127.94L45.04 128.28L44.45 132.8L43.85 128.28L36.03 127.94L43.85 127.59Z" fill="white"/>
<path id="Vector_183" d="M16.4901 30.58L17.7201 21.26L18.9401 30.58L35.0901 31.29L18.9401 32L17.7201 41.32L16.4901 32L0.340088 31.29L16.4901 30.58Z" fill="white"/>
<path id="Vector_184" d="M25.2101 37.81L25.8101 33.29L26.4001 37.81L34.2301 38.15L26.4001 38.5L25.8101 43.01L25.2101 38.5L17.3901 38.15L25.2101 37.81Z" fill="white"/>
<path id="Vector_185" d="M148.29 70.78L149.52 61.46L150.75 70.78L166.89 71.49L150.75 72.2L149.52 81.52L148.29 72.2L132.15 71.49L148.29 70.78Z" fill="white"/>
<path id="Vector_186" d="M157.02 78.01L157.61 73.49L158.21 78.01L166.03 78.35L158.21 78.69L157.61 83.21L157.02 78.69L149.19 78.35L157.02 78.01Z" fill="white"/>
</g>
</svg>
