<svg width="313" height="241" viewBox="0 0 313 241" fill="none" xmlns="http://www.w3.org/2000/svg">
<path d="M311.946 133.298L312.748 115.256L298.385 111.631C297.768 105.517 296.48 99.4543 294.536 93.5074L306.725 86.6422L298.457 69.699L283.381 70.6327C279.807 65.1738 275.633 59.9602 270.907 55.0488L278.712 45.0119L262.674 31.8171L249.202 37.1307C243.144 33.1408 236.672 29.5406 229.85 26.3661L232.024 14.8327L210.64 7.36339L200.839 16.2057C193.278 14.3421 185.529 12.9644 177.673 12.0866L174.109 0.786572L150.622 0.168701L145.989 11.2491C138.061 11.7293 130.199 12.7167 122.484 14.2011L113.432 4.86447L91.4417 11.1941L92.6535 22.81C85.5724 25.6059 78.8069 28.853 72.4278 32.5173L59.3123 26.3661L42.116 38.7234L49.0123 49.1585C43.8327 53.8028 39.1823 58.7824 35.1127 64.0421L20.1617 62.3121L10.3964 78.7885L21.9437 86.3264C19.5079 92.1486 17.7195 98.12 16.5977 104.176L1.75368 107.045L0.951782 125.087L15.386 128.712C15.983 134.822 17.2649 140.882 19.2173 146.822L7.0284 153.687L15.3147 170.644L30.3904 169.711C33.9557 175.173 38.1294 180.388 42.8644 185.295L35.0414 195.331L51.0794 208.526L64.5514 203.213C70.5934 207.202 77.0546 210.798 83.8682 213.963L81.6229 225.483L103.007 232.966L112.861 224.124C120.422 226.004 128.17 227.405 136.027 228.312L139.591 239.612L163.078 240.23L167.711 229.149C175.644 228.663 183.511 227.676 191.234 226.197L200.144 235.534L222.134 229.204L220.993 217.588C228.061 214.775 234.825 211.528 241.219 207.881L254.174 213.895L271.37 201.538L264.474 191.102C269.655 186.459 274.306 181.479 278.374 176.219L293.324 177.949L303.09 161.472L291.543 153.921C294.019 148.103 295.838 142.131 296.978 136.071L311.946 133.298ZM153.723 191.748C135.347 191.269 117.567 186.603 102.634 178.338C87.7009 170.073 76.2844 158.581 69.829 145.316C63.3735 132.051 62.169 117.609 66.3679 103.816C70.5668 90.0237 79.9805 77.5006 93.418 67.8309C106.856 58.1612 123.713 51.7795 141.859 49.493C160.004 47.2064 178.622 49.1178 195.358 54.9853C212.093 60.8528 226.194 70.4128 235.877 82.4561C245.56 94.4993 250.389 108.485 249.755 122.643C248.909 141.618 238.317 159.557 220.309 172.516C202.3 185.475 178.349 192.392 153.723 191.748Z" fill="#EBEBEB"/>
</svg>
